G75*
G70*
%OFA0B0*%
%FSLAX24Y24*%
%IPPOS*%
%LPD*%
%AMOC8*
5,1,8,0,0,1.08239X$1,22.5*
%
%ADD10C,0.0050*%
%ADD11C,0.0000*%
%ADD12C,0.0600*%
%ADD13C,0.0500*%
%ADD14C,0.0472*%
D10*
X007731Y001800D02*
X007731Y003700D01*
X007733Y003723D01*
X007738Y003746D01*
X007747Y003768D01*
X007760Y003788D01*
X007775Y003806D01*
X007793Y003821D01*
X007813Y003834D01*
X007835Y003843D01*
X007858Y003848D01*
X007881Y003850D01*
X008981Y003850D01*
X009381Y004250D01*
X009381Y005900D01*
X009531Y006050D01*
X009531Y006700D01*
X009533Y006723D01*
X009539Y006747D01*
X009548Y006768D01*
X009561Y006789D01*
X009577Y006807D01*
X009595Y006822D01*
X009615Y006834D01*
X009638Y006843D01*
X009661Y006848D01*
X009685Y006850D01*
X009935Y006850D01*
X009958Y006848D01*
X009981Y006843D01*
X010003Y006834D01*
X010023Y006821D01*
X010041Y006806D01*
X010056Y006788D01*
X010069Y006768D01*
X010078Y006746D01*
X010083Y006723D01*
X010085Y006700D01*
X010085Y006200D01*
X010087Y006176D01*
X010092Y006154D01*
X010100Y006132D01*
X010112Y006112D01*
X010127Y006095D01*
X010145Y006079D01*
X010164Y006067D01*
X010186Y006058D01*
X010208Y006052D01*
X010231Y006050D01*
X010581Y006050D01*
X010605Y006052D01*
X010628Y006057D01*
X010651Y006066D01*
X010671Y006078D01*
X010689Y006093D01*
X010705Y006111D01*
X010718Y006132D01*
X010727Y006153D01*
X010733Y006177D01*
X010735Y006200D01*
X010735Y006700D01*
X010737Y006723D01*
X010742Y006746D01*
X010751Y006768D01*
X010764Y006788D01*
X010779Y006806D01*
X010797Y006821D01*
X010817Y006834D01*
X010839Y006843D01*
X010862Y006848D01*
X010885Y006850D01*
X011135Y006850D01*
X011158Y006848D01*
X011180Y006842D01*
X011202Y006833D01*
X011221Y006821D01*
X011239Y006805D01*
X011254Y006788D01*
X011266Y006768D01*
X011274Y006746D01*
X011279Y006724D01*
X011281Y006700D01*
X011281Y006050D01*
X011431Y005900D01*
X011431Y005600D01*
X011931Y005100D01*
X011931Y001800D01*
X011929Y001777D01*
X011924Y001754D01*
X011915Y001732D01*
X011902Y001712D01*
X011887Y001694D01*
X011869Y001679D01*
X011849Y001666D01*
X011827Y001657D01*
X011804Y001652D01*
X011781Y001650D01*
X007881Y001650D01*
X007858Y001652D01*
X007835Y001657D01*
X007813Y001666D01*
X007793Y001679D01*
X007775Y001694D01*
X007760Y001712D01*
X007747Y001732D01*
X007738Y001754D01*
X007733Y001777D01*
X007731Y001800D01*
D11*
X010110Y004740D02*
X010112Y004774D01*
X010118Y004808D01*
X010127Y004841D01*
X010141Y004872D01*
X010158Y004902D01*
X010178Y004930D01*
X010201Y004955D01*
X010227Y004978D01*
X010255Y004997D01*
X010285Y005013D01*
X010317Y005025D01*
X010350Y005034D01*
X010384Y005039D01*
X010419Y005040D01*
X010453Y005037D01*
X010486Y005030D01*
X010519Y005020D01*
X010550Y005005D01*
X010579Y004988D01*
X010606Y004967D01*
X010631Y004943D01*
X010653Y004916D01*
X010671Y004888D01*
X010686Y004857D01*
X010698Y004825D01*
X010706Y004791D01*
X010710Y004757D01*
X010710Y004723D01*
X010706Y004689D01*
X010698Y004655D01*
X010686Y004623D01*
X010671Y004592D01*
X010653Y004564D01*
X010631Y004537D01*
X010606Y004513D01*
X010579Y004492D01*
X010550Y004475D01*
X010519Y004460D01*
X010486Y004450D01*
X010453Y004443D01*
X010419Y004440D01*
X010384Y004441D01*
X010350Y004446D01*
X010317Y004455D01*
X010285Y004467D01*
X010255Y004483D01*
X010227Y004502D01*
X010201Y004525D01*
X010178Y004550D01*
X010158Y004578D01*
X010141Y004608D01*
X010127Y004639D01*
X010118Y004672D01*
X010112Y004706D01*
X010110Y004740D01*
X010160Y005643D02*
X010162Y005674D01*
X010168Y005705D01*
X010178Y005735D01*
X010191Y005763D01*
X010208Y005790D01*
X010228Y005814D01*
X010251Y005836D01*
X010276Y005854D01*
X010304Y005869D01*
X010333Y005881D01*
X010363Y005889D01*
X010394Y005893D01*
X010426Y005893D01*
X010457Y005889D01*
X010487Y005881D01*
X010516Y005869D01*
X010544Y005854D01*
X010569Y005836D01*
X010592Y005814D01*
X010612Y005790D01*
X010629Y005763D01*
X010642Y005735D01*
X010652Y005705D01*
X010658Y005674D01*
X010660Y005643D01*
X010658Y005612D01*
X010652Y005581D01*
X010642Y005551D01*
X010629Y005523D01*
X010612Y005496D01*
X010592Y005472D01*
X010569Y005450D01*
X010544Y005432D01*
X010516Y005417D01*
X010487Y005405D01*
X010457Y005397D01*
X010426Y005393D01*
X010394Y005393D01*
X010363Y005397D01*
X010333Y005405D01*
X010304Y005417D01*
X010276Y005432D01*
X010251Y005450D01*
X010228Y005472D01*
X010208Y005496D01*
X010191Y005523D01*
X010178Y005551D01*
X010168Y005581D01*
X010162Y005612D01*
X010160Y005643D01*
D12*
X010410Y004740D03*
D13*
X010410Y005643D03*
D14*
X011631Y004900D03*
X011631Y004050D03*
M02*
