G75*
G70*
%OFA0B0*%
%FSLAX24Y24*%
%IPPOS*%
%LPD*%
%AMOC8*
5,1,8,0,0,1.08239X$1,22.5*
%
%ADD10C,0.0050*%
%ADD11C,0.0000*%
%ADD12R,0.0220X0.0197*%
%ADD13R,0.0177X0.0315*%
%ADD14R,0.0094X0.0315*%
%ADD15C,0.0004*%
D10*
X007731Y001800D02*
X007731Y003700D01*
X007733Y003723D01*
X007738Y003746D01*
X007747Y003768D01*
X007760Y003788D01*
X007775Y003806D01*
X007793Y003821D01*
X007813Y003834D01*
X007835Y003843D01*
X007858Y003848D01*
X007881Y003850D01*
X008981Y003850D01*
X009381Y004250D01*
X009381Y005900D01*
X009531Y006050D01*
X009531Y006700D01*
X009533Y006723D01*
X009539Y006747D01*
X009548Y006768D01*
X009561Y006789D01*
X009577Y006807D01*
X009595Y006822D01*
X009615Y006834D01*
X009638Y006843D01*
X009661Y006848D01*
X009685Y006850D01*
X009935Y006850D01*
X009958Y006848D01*
X009981Y006843D01*
X010003Y006834D01*
X010023Y006821D01*
X010041Y006806D01*
X010056Y006788D01*
X010069Y006768D01*
X010078Y006746D01*
X010083Y006723D01*
X010085Y006700D01*
X010085Y006200D01*
X010087Y006176D01*
X010092Y006154D01*
X010100Y006132D01*
X010112Y006112D01*
X010127Y006095D01*
X010145Y006079D01*
X010164Y006067D01*
X010186Y006058D01*
X010208Y006052D01*
X010231Y006050D01*
X010581Y006050D01*
X010605Y006052D01*
X010628Y006057D01*
X010651Y006066D01*
X010671Y006078D01*
X010689Y006093D01*
X010705Y006111D01*
X010718Y006132D01*
X010727Y006153D01*
X010733Y006177D01*
X010735Y006200D01*
X010735Y006700D01*
X010737Y006723D01*
X010742Y006746D01*
X010751Y006768D01*
X010764Y006788D01*
X010779Y006806D01*
X010797Y006821D01*
X010817Y006834D01*
X010839Y006843D01*
X010862Y006848D01*
X010885Y006850D01*
X011135Y006850D01*
X011158Y006848D01*
X011180Y006842D01*
X011202Y006833D01*
X011221Y006821D01*
X011239Y006805D01*
X011254Y006788D01*
X011266Y006768D01*
X011274Y006746D01*
X011279Y006724D01*
X011281Y006700D01*
X011281Y006050D01*
X011431Y005900D01*
X011431Y005600D01*
X011931Y005100D01*
X011931Y001800D01*
X011929Y001777D01*
X011924Y001754D01*
X011915Y001732D01*
X011902Y001712D01*
X011887Y001694D01*
X011869Y001679D01*
X011849Y001666D01*
X011827Y001657D01*
X011804Y001652D01*
X011781Y001650D01*
X007881Y001650D01*
X007858Y001652D01*
X007835Y001657D01*
X007813Y001666D01*
X007793Y001679D01*
X007775Y001694D01*
X007760Y001712D01*
X007747Y001732D01*
X007738Y001754D01*
X007733Y001777D01*
X007731Y001800D01*
D11*
X010110Y004740D02*
X010112Y004774D01*
X010118Y004808D01*
X010127Y004841D01*
X010141Y004872D01*
X010158Y004902D01*
X010178Y004930D01*
X010201Y004955D01*
X010227Y004978D01*
X010255Y004997D01*
X010285Y005013D01*
X010317Y005025D01*
X010350Y005034D01*
X010384Y005039D01*
X010419Y005040D01*
X010453Y005037D01*
X010486Y005030D01*
X010519Y005020D01*
X010550Y005005D01*
X010579Y004988D01*
X010606Y004967D01*
X010631Y004943D01*
X010653Y004916D01*
X010671Y004888D01*
X010686Y004857D01*
X010698Y004825D01*
X010706Y004791D01*
X010710Y004757D01*
X010710Y004723D01*
X010706Y004689D01*
X010698Y004655D01*
X010686Y004623D01*
X010671Y004592D01*
X010653Y004564D01*
X010631Y004537D01*
X010606Y004513D01*
X010579Y004492D01*
X010550Y004475D01*
X010519Y004460D01*
X010486Y004450D01*
X010453Y004443D01*
X010419Y004440D01*
X010384Y004441D01*
X010350Y004446D01*
X010317Y004455D01*
X010285Y004467D01*
X010255Y004483D01*
X010227Y004502D01*
X010201Y004525D01*
X010178Y004550D01*
X010158Y004578D01*
X010141Y004608D01*
X010127Y004639D01*
X010118Y004672D01*
X010112Y004706D01*
X010110Y004740D01*
X010160Y005643D02*
X010162Y005674D01*
X010168Y005705D01*
X010178Y005735D01*
X010191Y005763D01*
X010208Y005790D01*
X010228Y005814D01*
X010251Y005836D01*
X010276Y005854D01*
X010304Y005869D01*
X010333Y005881D01*
X010363Y005889D01*
X010394Y005893D01*
X010426Y005893D01*
X010457Y005889D01*
X010487Y005881D01*
X010516Y005869D01*
X010544Y005854D01*
X010569Y005836D01*
X010592Y005814D01*
X010612Y005790D01*
X010629Y005763D01*
X010642Y005735D01*
X010652Y005705D01*
X010658Y005674D01*
X010660Y005643D01*
X010658Y005612D01*
X010652Y005581D01*
X010642Y005551D01*
X010629Y005523D01*
X010612Y005496D01*
X010592Y005472D01*
X010569Y005450D01*
X010544Y005432D01*
X010516Y005417D01*
X010487Y005405D01*
X010457Y005397D01*
X010426Y005393D01*
X010394Y005393D01*
X010363Y005397D01*
X010333Y005405D01*
X010304Y005417D01*
X010276Y005432D01*
X010251Y005450D01*
X010228Y005472D01*
X010208Y005496D01*
X010191Y005523D01*
X010178Y005551D01*
X010168Y005581D01*
X010162Y005612D01*
X010160Y005643D01*
D12*
X010183Y004150D03*
X009736Y004150D03*
X010636Y004150D03*
X011083Y004150D03*
D13*
X011219Y003550D03*
X008444Y003550D03*
D14*
X008650Y003550D03*
X008808Y003550D03*
X008965Y003550D03*
X009123Y003550D03*
X009280Y003550D03*
X009438Y003550D03*
X009595Y003550D03*
X009753Y003550D03*
X009910Y003550D03*
X010068Y003550D03*
X010225Y003550D03*
X010383Y003550D03*
X010540Y003550D03*
X010698Y003550D03*
X010855Y003550D03*
X011013Y003550D03*
D15*
X011448Y003502D02*
X011833Y003502D01*
X011834Y003500D02*
X011448Y003500D01*
X011447Y003497D02*
X011834Y003497D01*
X011834Y003495D02*
X011447Y003495D01*
X011447Y003492D02*
X011834Y003492D01*
X011835Y003490D02*
X011446Y003490D01*
X011446Y003487D02*
X011835Y003487D01*
X011835Y003485D02*
X011446Y003485D01*
X011446Y003483D02*
X011835Y003483D01*
X011836Y003480D02*
X011445Y003480D01*
X011445Y003478D02*
X011836Y003478D01*
X011836Y003475D02*
X011445Y003475D01*
X011445Y003473D02*
X011837Y003473D01*
X011837Y003470D02*
X011444Y003470D01*
X011444Y003468D02*
X011837Y003468D01*
X011837Y003466D02*
X011444Y003466D01*
X011449Y003509D01*
X011463Y003551D01*
X011487Y003588D01*
X011518Y003619D01*
X011555Y003643D01*
X011597Y003657D01*
X011641Y003662D01*
X011684Y003657D01*
X011726Y003643D01*
X011763Y003619D01*
X011794Y003588D01*
X011818Y003551D01*
X011832Y003509D01*
X011837Y003466D01*
X011837Y003170D01*
X011832Y003126D01*
X011818Y003085D01*
X011794Y003048D01*
X011763Y003016D01*
X011726Y002993D01*
X011684Y002978D01*
X011641Y002973D01*
X011597Y002978D01*
X011555Y002993D01*
X011518Y003016D01*
X011487Y003048D01*
X011463Y003085D01*
X011449Y003126D01*
X011444Y003170D01*
X011444Y003466D01*
X011444Y003463D02*
X011837Y003463D01*
X011837Y003461D02*
X011444Y003461D01*
X011444Y003458D02*
X011837Y003458D01*
X011837Y003456D02*
X011444Y003456D01*
X011444Y003453D02*
X011837Y003453D01*
X011837Y003451D02*
X011444Y003451D01*
X011444Y003449D02*
X011837Y003449D01*
X011837Y003446D02*
X011444Y003446D01*
X011444Y003444D02*
X011837Y003444D01*
X011837Y003441D02*
X011444Y003441D01*
X011444Y003439D02*
X011837Y003439D01*
X011837Y003436D02*
X011444Y003436D01*
X011444Y003434D02*
X011837Y003434D01*
X011837Y003431D02*
X011444Y003431D01*
X011444Y003429D02*
X011837Y003429D01*
X011837Y003427D02*
X011444Y003427D01*
X011444Y003424D02*
X011837Y003424D01*
X011837Y003422D02*
X011444Y003422D01*
X011444Y003419D02*
X011837Y003419D01*
X011837Y003417D02*
X011444Y003417D01*
X011444Y003414D02*
X011837Y003414D01*
X011837Y003412D02*
X011444Y003412D01*
X011444Y003410D02*
X011837Y003410D01*
X011837Y003407D02*
X011444Y003407D01*
X011444Y003405D02*
X011837Y003405D01*
X011837Y003402D02*
X011444Y003402D01*
X011444Y003400D02*
X011837Y003400D01*
X011837Y003397D02*
X011444Y003397D01*
X011444Y003395D02*
X011837Y003395D01*
X011837Y003392D02*
X011444Y003392D01*
X011444Y003390D02*
X011837Y003390D01*
X011837Y003388D02*
X011444Y003388D01*
X011444Y003385D02*
X011837Y003385D01*
X011837Y003383D02*
X011444Y003383D01*
X011444Y003380D02*
X011837Y003380D01*
X011837Y003378D02*
X011444Y003378D01*
X011444Y003375D02*
X011837Y003375D01*
X011837Y003373D02*
X011444Y003373D01*
X011444Y003371D02*
X011837Y003371D01*
X011837Y003368D02*
X011444Y003368D01*
X011444Y003366D02*
X011837Y003366D01*
X011837Y003363D02*
X011444Y003363D01*
X011444Y003361D02*
X011837Y003361D01*
X011837Y003358D02*
X011444Y003358D01*
X011444Y003356D02*
X011837Y003356D01*
X011837Y003353D02*
X011444Y003353D01*
X011444Y003351D02*
X011837Y003351D01*
X011837Y003349D02*
X011444Y003349D01*
X011444Y003346D02*
X011837Y003346D01*
X011837Y003344D02*
X011444Y003344D01*
X011444Y003341D02*
X011837Y003341D01*
X011837Y003339D02*
X011444Y003339D01*
X011444Y003336D02*
X011837Y003336D01*
X011837Y003334D02*
X011444Y003334D01*
X011444Y003332D02*
X011837Y003332D01*
X011837Y003329D02*
X011444Y003329D01*
X011444Y003327D02*
X011837Y003327D01*
X011837Y003324D02*
X011444Y003324D01*
X011444Y003322D02*
X011837Y003322D01*
X011837Y003319D02*
X011444Y003319D01*
X011444Y003317D02*
X011837Y003317D01*
X011837Y003314D02*
X011444Y003314D01*
X011444Y003312D02*
X011837Y003312D01*
X011837Y003310D02*
X011444Y003310D01*
X011444Y003307D02*
X011837Y003307D01*
X011837Y003305D02*
X011444Y003305D01*
X011444Y003302D02*
X011837Y003302D01*
X011837Y003300D02*
X011444Y003300D01*
X011444Y003297D02*
X011837Y003297D01*
X011837Y003295D02*
X011444Y003295D01*
X011444Y003293D02*
X011837Y003293D01*
X011837Y003290D02*
X011444Y003290D01*
X011444Y003288D02*
X011837Y003288D01*
X011837Y003285D02*
X011444Y003285D01*
X011444Y003283D02*
X011837Y003283D01*
X011837Y003280D02*
X011444Y003280D01*
X011444Y003278D02*
X011837Y003278D01*
X011837Y003275D02*
X011444Y003275D01*
X011444Y003273D02*
X011837Y003273D01*
X011837Y003271D02*
X011444Y003271D01*
X011444Y003268D02*
X011837Y003268D01*
X011837Y003266D02*
X011444Y003266D01*
X011444Y003263D02*
X011837Y003263D01*
X011837Y003261D02*
X011444Y003261D01*
X011444Y003258D02*
X011837Y003258D01*
X011837Y003256D02*
X011444Y003256D01*
X011444Y003254D02*
X011837Y003254D01*
X011837Y003251D02*
X011444Y003251D01*
X011444Y003249D02*
X011837Y003249D01*
X011837Y003246D02*
X011444Y003246D01*
X011444Y003244D02*
X011837Y003244D01*
X011837Y003241D02*
X011444Y003241D01*
X011444Y003239D02*
X011837Y003239D01*
X011837Y003236D02*
X011444Y003236D01*
X011444Y003234D02*
X011837Y003234D01*
X011837Y003232D02*
X011444Y003232D01*
X011444Y003229D02*
X011837Y003229D01*
X011837Y003227D02*
X011444Y003227D01*
X011444Y003224D02*
X011837Y003224D01*
X011837Y003222D02*
X011444Y003222D01*
X011444Y003219D02*
X011837Y003219D01*
X011837Y003217D02*
X011444Y003217D01*
X011444Y003215D02*
X011837Y003215D01*
X011837Y003212D02*
X011444Y003212D01*
X011444Y003210D02*
X011837Y003210D01*
X011837Y003207D02*
X011444Y003207D01*
X011444Y003205D02*
X011837Y003205D01*
X011837Y003202D02*
X011444Y003202D01*
X011444Y003200D02*
X011837Y003200D01*
X011837Y003197D02*
X011444Y003197D01*
X011444Y003195D02*
X011837Y003195D01*
X011837Y003193D02*
X011444Y003193D01*
X011444Y003190D02*
X011837Y003190D01*
X011837Y003188D02*
X011444Y003188D01*
X011444Y003185D02*
X011837Y003185D01*
X011837Y003183D02*
X011444Y003183D01*
X011444Y003180D02*
X011837Y003180D01*
X011837Y003178D02*
X011444Y003178D01*
X011444Y003176D02*
X011837Y003176D01*
X011837Y003173D02*
X011444Y003173D01*
X011444Y003171D02*
X011837Y003171D01*
X011837Y003168D02*
X011444Y003168D01*
X011444Y003166D02*
X011837Y003166D01*
X011837Y003163D02*
X011444Y003163D01*
X011445Y003161D02*
X011836Y003161D01*
X011836Y003158D02*
X011445Y003158D01*
X011445Y003156D02*
X011836Y003156D01*
X011836Y003154D02*
X011446Y003154D01*
X011446Y003151D02*
X011835Y003151D01*
X011835Y003149D02*
X011446Y003149D01*
X011446Y003146D02*
X011835Y003146D01*
X011834Y003144D02*
X011447Y003144D01*
X011447Y003141D02*
X011834Y003141D01*
X011834Y003139D02*
X011447Y003139D01*
X011448Y003137D02*
X011834Y003137D01*
X011833Y003134D02*
X011448Y003134D01*
X011448Y003132D02*
X011833Y003132D01*
X011833Y003129D02*
X011448Y003129D01*
X011449Y003127D02*
X011833Y003127D01*
X011832Y003124D02*
X011449Y003124D01*
X011450Y003122D02*
X011831Y003122D01*
X011830Y003119D02*
X011451Y003119D01*
X011452Y003117D02*
X011829Y003117D01*
X011828Y003115D02*
X011453Y003115D01*
X011454Y003112D02*
X011827Y003112D01*
X011827Y003110D02*
X011454Y003110D01*
X011455Y003107D02*
X011826Y003107D01*
X011825Y003105D02*
X011456Y003105D01*
X011457Y003102D02*
X011824Y003102D01*
X011823Y003100D02*
X011458Y003100D01*
X011459Y003098D02*
X011822Y003098D01*
X011821Y003095D02*
X011460Y003095D01*
X011460Y003093D02*
X011821Y003093D01*
X011820Y003090D02*
X011461Y003090D01*
X011462Y003088D02*
X011819Y003088D01*
X011818Y003085D02*
X011463Y003085D01*
X011464Y003083D02*
X011817Y003083D01*
X011815Y003080D02*
X011466Y003080D01*
X011467Y003078D02*
X011814Y003078D01*
X011812Y003076D02*
X011469Y003076D01*
X011471Y003073D02*
X011811Y003073D01*
X011809Y003071D02*
X011472Y003071D01*
X011474Y003068D02*
X011807Y003068D01*
X011806Y003066D02*
X011475Y003066D01*
X011477Y003063D02*
X011804Y003063D01*
X011803Y003061D02*
X011478Y003061D01*
X011480Y003059D02*
X011801Y003059D01*
X011800Y003056D02*
X011481Y003056D01*
X011483Y003054D02*
X011798Y003054D01*
X011797Y003051D02*
X011484Y003051D01*
X011486Y003049D02*
X011795Y003049D01*
X011793Y003046D02*
X011488Y003046D01*
X011490Y003044D02*
X011791Y003044D01*
X011788Y003041D02*
X011493Y003041D01*
X011495Y003039D02*
X011786Y003039D01*
X011784Y003037D02*
X011498Y003037D01*
X011500Y003034D02*
X011781Y003034D01*
X011779Y003032D02*
X011502Y003032D01*
X011505Y003029D02*
X011776Y003029D01*
X011774Y003027D02*
X011507Y003027D01*
X011510Y003024D02*
X011771Y003024D01*
X011769Y003022D02*
X011512Y003022D01*
X011515Y003020D02*
X011766Y003020D01*
X011764Y003017D02*
X011517Y003017D01*
X011521Y003015D02*
X011761Y003015D01*
X011757Y003012D02*
X011524Y003012D01*
X011528Y003010D02*
X011753Y003010D01*
X011749Y003007D02*
X011532Y003007D01*
X011536Y003005D02*
X011745Y003005D01*
X011741Y003002D02*
X011540Y003002D01*
X011544Y003000D02*
X011737Y003000D01*
X011733Y002998D02*
X011548Y002998D01*
X011552Y002995D02*
X011730Y002995D01*
X011725Y002993D02*
X011556Y002993D01*
X011563Y002990D02*
X011718Y002990D01*
X011712Y002988D02*
X011570Y002988D01*
X011577Y002985D02*
X011705Y002985D01*
X011698Y002983D02*
X011584Y002983D01*
X011590Y002981D02*
X011691Y002981D01*
X011682Y002978D02*
X011599Y002978D01*
X011621Y002976D02*
X011661Y002976D01*
X011641Y002621D02*
X011684Y002616D01*
X011726Y002601D01*
X011763Y002578D01*
X011794Y002546D01*
X011818Y002509D01*
X011832Y002468D01*
X011837Y002424D01*
X011837Y001825D01*
X011832Y001781D01*
X011818Y001739D01*
X011794Y001702D01*
X011763Y001671D01*
X011726Y001647D01*
X011555Y001647D01*
X011518Y001671D01*
X011487Y001702D01*
X011463Y001739D01*
X011449Y001781D01*
X011444Y001825D01*
X011444Y002424D01*
X011449Y002468D01*
X011463Y002509D01*
X011487Y002546D01*
X011518Y002578D01*
X011555Y002601D01*
X011597Y002616D01*
X011641Y002621D01*
X011647Y002620D02*
X011634Y002620D01*
X011612Y002617D02*
X011669Y002617D01*
X011686Y002615D02*
X011595Y002615D01*
X011588Y002613D02*
X011693Y002613D01*
X011700Y002610D02*
X011581Y002610D01*
X011574Y002608D02*
X011707Y002608D01*
X011714Y002605D02*
X011567Y002605D01*
X011560Y002603D02*
X011721Y002603D01*
X011727Y002600D02*
X011554Y002600D01*
X011550Y002598D02*
X011731Y002598D01*
X011735Y002595D02*
X011546Y002595D01*
X011542Y002593D02*
X011739Y002593D01*
X011743Y002591D02*
X011538Y002591D01*
X011535Y002588D02*
X011747Y002588D01*
X011750Y002586D02*
X011531Y002586D01*
X011527Y002583D02*
X011754Y002583D01*
X011758Y002581D02*
X011523Y002581D01*
X011519Y002578D02*
X011762Y002578D01*
X011765Y002576D02*
X011516Y002576D01*
X011514Y002574D02*
X011767Y002574D01*
X011770Y002571D02*
X011511Y002571D01*
X011509Y002569D02*
X011772Y002569D01*
X011775Y002566D02*
X011506Y002566D01*
X011504Y002564D02*
X011777Y002564D01*
X011780Y002561D02*
X011502Y002561D01*
X011499Y002559D02*
X011782Y002559D01*
X011784Y002556D02*
X011497Y002556D01*
X011494Y002554D02*
X011787Y002554D01*
X011789Y002552D02*
X011492Y002552D01*
X011489Y002549D02*
X011792Y002549D01*
X011794Y002547D02*
X011487Y002547D01*
X011485Y002544D02*
X011796Y002544D01*
X011797Y002542D02*
X011484Y002542D01*
X011482Y002539D02*
X011799Y002539D01*
X011800Y002537D02*
X011481Y002537D01*
X011479Y002535D02*
X011802Y002535D01*
X011803Y002532D02*
X011478Y002532D01*
X011476Y002530D02*
X011805Y002530D01*
X011807Y002527D02*
X011475Y002527D01*
X011473Y002525D02*
X011808Y002525D01*
X011810Y002522D02*
X011471Y002522D01*
X011470Y002520D02*
X011811Y002520D01*
X011813Y002517D02*
X011468Y002517D01*
X011467Y002515D02*
X011814Y002515D01*
X011816Y002513D02*
X011465Y002513D01*
X011464Y002510D02*
X011817Y002510D01*
X011818Y002508D02*
X011463Y002508D01*
X011462Y002505D02*
X011819Y002505D01*
X011820Y002503D02*
X011461Y002503D01*
X011460Y002500D02*
X011821Y002500D01*
X011822Y002498D02*
X011459Y002498D01*
X011458Y002496D02*
X011823Y002496D01*
X011824Y002493D02*
X011458Y002493D01*
X011457Y002491D02*
X011824Y002491D01*
X011825Y002488D02*
X011456Y002488D01*
X011455Y002486D02*
X011826Y002486D01*
X011827Y002483D02*
X011454Y002483D01*
X011453Y002481D02*
X011828Y002481D01*
X011829Y002478D02*
X011452Y002478D01*
X011452Y002476D02*
X011829Y002476D01*
X011830Y002474D02*
X011451Y002474D01*
X011450Y002471D02*
X011831Y002471D01*
X011832Y002469D02*
X011449Y002469D01*
X011448Y002466D02*
X011833Y002466D01*
X011833Y002464D02*
X011448Y002464D01*
X011448Y002461D02*
X011833Y002461D01*
X011833Y002459D02*
X011448Y002459D01*
X011447Y002457D02*
X011834Y002457D01*
X011834Y002454D02*
X011447Y002454D01*
X011447Y002452D02*
X011834Y002452D01*
X011835Y002449D02*
X011447Y002449D01*
X011446Y002447D02*
X011835Y002447D01*
X011835Y002444D02*
X011446Y002444D01*
X011446Y002442D02*
X011835Y002442D01*
X011836Y002439D02*
X011445Y002439D01*
X011445Y002437D02*
X011836Y002437D01*
X011836Y002435D02*
X011445Y002435D01*
X011445Y002432D02*
X011836Y002432D01*
X011837Y002430D02*
X011444Y002430D01*
X011444Y002427D02*
X011837Y002427D01*
X011837Y002425D02*
X011444Y002425D01*
X011444Y002422D02*
X011837Y002422D01*
X011837Y002420D02*
X011444Y002420D01*
X011444Y002418D02*
X011837Y002418D01*
X011837Y002415D02*
X011444Y002415D01*
X011444Y002413D02*
X011837Y002413D01*
X011837Y002410D02*
X011444Y002410D01*
X011444Y002408D02*
X011837Y002408D01*
X011837Y002405D02*
X011444Y002405D01*
X011444Y002403D02*
X011837Y002403D01*
X011837Y002400D02*
X011444Y002400D01*
X011444Y002398D02*
X011837Y002398D01*
X011837Y002396D02*
X011444Y002396D01*
X011444Y002393D02*
X011837Y002393D01*
X011837Y002391D02*
X011444Y002391D01*
X011444Y002388D02*
X011837Y002388D01*
X011837Y002386D02*
X011444Y002386D01*
X011444Y002383D02*
X011837Y002383D01*
X011837Y002381D02*
X011444Y002381D01*
X011444Y002379D02*
X011837Y002379D01*
X011837Y002376D02*
X011444Y002376D01*
X011444Y002374D02*
X011837Y002374D01*
X011837Y002371D02*
X011444Y002371D01*
X011444Y002369D02*
X011837Y002369D01*
X011837Y002366D02*
X011444Y002366D01*
X011444Y002364D02*
X011837Y002364D01*
X011837Y002361D02*
X011444Y002361D01*
X011444Y002359D02*
X011837Y002359D01*
X011837Y002357D02*
X011444Y002357D01*
X011444Y002354D02*
X011837Y002354D01*
X011837Y002352D02*
X011444Y002352D01*
X011444Y002349D02*
X011837Y002349D01*
X011837Y002347D02*
X011444Y002347D01*
X011444Y002344D02*
X011837Y002344D01*
X011837Y002342D02*
X011444Y002342D01*
X011444Y002340D02*
X011837Y002340D01*
X011837Y002337D02*
X011444Y002337D01*
X011444Y002335D02*
X011837Y002335D01*
X011837Y002332D02*
X011444Y002332D01*
X011444Y002330D02*
X011837Y002330D01*
X011837Y002327D02*
X011444Y002327D01*
X011444Y002325D02*
X011837Y002325D01*
X011837Y002322D02*
X011444Y002322D01*
X011444Y002320D02*
X011837Y002320D01*
X011837Y002318D02*
X011444Y002318D01*
X011444Y002315D02*
X011837Y002315D01*
X011837Y002313D02*
X011444Y002313D01*
X011444Y002310D02*
X011837Y002310D01*
X011837Y002308D02*
X011444Y002308D01*
X011444Y002305D02*
X011837Y002305D01*
X011837Y002303D02*
X011444Y002303D01*
X011444Y002301D02*
X011837Y002301D01*
X011837Y002298D02*
X011444Y002298D01*
X011444Y002296D02*
X011837Y002296D01*
X011837Y002293D02*
X011444Y002293D01*
X011444Y002291D02*
X011837Y002291D01*
X011837Y002288D02*
X011444Y002288D01*
X011444Y002286D02*
X011837Y002286D01*
X011837Y002283D02*
X011444Y002283D01*
X011444Y002281D02*
X011837Y002281D01*
X011837Y002279D02*
X011444Y002279D01*
X011444Y002276D02*
X011837Y002276D01*
X011837Y002274D02*
X011444Y002274D01*
X011444Y002271D02*
X011837Y002271D01*
X011837Y002269D02*
X011444Y002269D01*
X011444Y002266D02*
X011837Y002266D01*
X011837Y002264D02*
X011444Y002264D01*
X011444Y002262D02*
X011837Y002262D01*
X011837Y002259D02*
X011444Y002259D01*
X011444Y002257D02*
X011837Y002257D01*
X011837Y002254D02*
X011444Y002254D01*
X011444Y002252D02*
X011837Y002252D01*
X011837Y002249D02*
X011444Y002249D01*
X011444Y002247D02*
X011837Y002247D01*
X011837Y002244D02*
X011444Y002244D01*
X011444Y002242D02*
X011837Y002242D01*
X011837Y002240D02*
X011444Y002240D01*
X011444Y002237D02*
X011837Y002237D01*
X011837Y002235D02*
X011444Y002235D01*
X011444Y002232D02*
X011837Y002232D01*
X011837Y002230D02*
X011444Y002230D01*
X011444Y002227D02*
X011837Y002227D01*
X011837Y002225D02*
X011444Y002225D01*
X011444Y002223D02*
X011837Y002223D01*
X011837Y002220D02*
X011444Y002220D01*
X011444Y002218D02*
X011837Y002218D01*
X011837Y002215D02*
X011444Y002215D01*
X011444Y002213D02*
X011837Y002213D01*
X011837Y002210D02*
X011444Y002210D01*
X011444Y002208D02*
X011837Y002208D01*
X011837Y002206D02*
X011444Y002206D01*
X011444Y002203D02*
X011837Y002203D01*
X011837Y002201D02*
X011444Y002201D01*
X011444Y002198D02*
X011837Y002198D01*
X011837Y002196D02*
X011444Y002196D01*
X011444Y002193D02*
X011837Y002193D01*
X011837Y002191D02*
X011444Y002191D01*
X011444Y002188D02*
X011837Y002188D01*
X011837Y002186D02*
X011444Y002186D01*
X011444Y002184D02*
X011837Y002184D01*
X011837Y002181D02*
X011444Y002181D01*
X011444Y002179D02*
X011837Y002179D01*
X011837Y002176D02*
X011444Y002176D01*
X011444Y002174D02*
X011837Y002174D01*
X011837Y002171D02*
X011444Y002171D01*
X011444Y002169D02*
X011837Y002169D01*
X011837Y002167D02*
X011444Y002167D01*
X011444Y002164D02*
X011837Y002164D01*
X011837Y002162D02*
X011444Y002162D01*
X011444Y002159D02*
X011837Y002159D01*
X011837Y002157D02*
X011444Y002157D01*
X011444Y002154D02*
X011837Y002154D01*
X011837Y002152D02*
X011444Y002152D01*
X011444Y002149D02*
X011837Y002149D01*
X011837Y002147D02*
X011444Y002147D01*
X011444Y002145D02*
X011837Y002145D01*
X011837Y002142D02*
X011444Y002142D01*
X011444Y002140D02*
X011837Y002140D01*
X011837Y002137D02*
X011444Y002137D01*
X011444Y002135D02*
X011837Y002135D01*
X011837Y002132D02*
X011444Y002132D01*
X011444Y002130D02*
X011837Y002130D01*
X011837Y002128D02*
X011444Y002128D01*
X011444Y002125D02*
X011837Y002125D01*
X011837Y002123D02*
X011444Y002123D01*
X011444Y002120D02*
X011837Y002120D01*
X011837Y002118D02*
X011444Y002118D01*
X011444Y002115D02*
X011837Y002115D01*
X011837Y002113D02*
X011444Y002113D01*
X011444Y002110D02*
X011837Y002110D01*
X011837Y002108D02*
X011444Y002108D01*
X011444Y002106D02*
X011837Y002106D01*
X011837Y002103D02*
X011444Y002103D01*
X011444Y002101D02*
X011837Y002101D01*
X011837Y002098D02*
X011444Y002098D01*
X011444Y002096D02*
X011837Y002096D01*
X011837Y002093D02*
X011444Y002093D01*
X011444Y002091D02*
X011837Y002091D01*
X011837Y002089D02*
X011444Y002089D01*
X011444Y002086D02*
X011837Y002086D01*
X011837Y002084D02*
X011444Y002084D01*
X011444Y002081D02*
X011837Y002081D01*
X011837Y002079D02*
X011444Y002079D01*
X011444Y002076D02*
X011837Y002076D01*
X011837Y002074D02*
X011444Y002074D01*
X011444Y002071D02*
X011837Y002071D01*
X011837Y002069D02*
X011444Y002069D01*
X011444Y002067D02*
X011837Y002067D01*
X011837Y002064D02*
X011444Y002064D01*
X011444Y002062D02*
X011837Y002062D01*
X011837Y002059D02*
X011444Y002059D01*
X011444Y002057D02*
X011837Y002057D01*
X011837Y002054D02*
X011444Y002054D01*
X011444Y002052D02*
X011837Y002052D01*
X011837Y002050D02*
X011444Y002050D01*
X011444Y002047D02*
X011837Y002047D01*
X011837Y002045D02*
X011444Y002045D01*
X011444Y002042D02*
X011837Y002042D01*
X011837Y002040D02*
X011444Y002040D01*
X011444Y002037D02*
X011837Y002037D01*
X011837Y002035D02*
X011444Y002035D01*
X011444Y002032D02*
X011837Y002032D01*
X011837Y002030D02*
X011444Y002030D01*
X011444Y002028D02*
X011837Y002028D01*
X011837Y002025D02*
X011444Y002025D01*
X011444Y002023D02*
X011837Y002023D01*
X011837Y002020D02*
X011444Y002020D01*
X011444Y002018D02*
X011837Y002018D01*
X011837Y002015D02*
X011444Y002015D01*
X011444Y002013D02*
X011837Y002013D01*
X011837Y002011D02*
X011444Y002011D01*
X011444Y002008D02*
X011837Y002008D01*
X011837Y002006D02*
X011444Y002006D01*
X011444Y002003D02*
X011837Y002003D01*
X011837Y002001D02*
X011444Y002001D01*
X011444Y001998D02*
X011837Y001998D01*
X011837Y001996D02*
X011444Y001996D01*
X011444Y001993D02*
X011837Y001993D01*
X011837Y001991D02*
X011444Y001991D01*
X011444Y001989D02*
X011837Y001989D01*
X011837Y001986D02*
X011444Y001986D01*
X011444Y001984D02*
X011837Y001984D01*
X011837Y001981D02*
X011444Y001981D01*
X011444Y001979D02*
X011837Y001979D01*
X011837Y001976D02*
X011444Y001976D01*
X011444Y001974D02*
X011837Y001974D01*
X011837Y001972D02*
X011444Y001972D01*
X011444Y001969D02*
X011837Y001969D01*
X011837Y001967D02*
X011444Y001967D01*
X011444Y001964D02*
X011837Y001964D01*
X011837Y001962D02*
X011444Y001962D01*
X011444Y001959D02*
X011837Y001959D01*
X011837Y001957D02*
X011444Y001957D01*
X011444Y001954D02*
X011837Y001954D01*
X011837Y001952D02*
X011444Y001952D01*
X011444Y001950D02*
X011837Y001950D01*
X011837Y001947D02*
X011444Y001947D01*
X011444Y001945D02*
X011837Y001945D01*
X011837Y001942D02*
X011444Y001942D01*
X011444Y001940D02*
X011837Y001940D01*
X011837Y001937D02*
X011444Y001937D01*
X011444Y001935D02*
X011837Y001935D01*
X011837Y001933D02*
X011444Y001933D01*
X011444Y001930D02*
X011837Y001930D01*
X011837Y001928D02*
X011444Y001928D01*
X011444Y001925D02*
X011837Y001925D01*
X011837Y001923D02*
X011444Y001923D01*
X011444Y001920D02*
X011837Y001920D01*
X011837Y001918D02*
X011444Y001918D01*
X011444Y001915D02*
X011837Y001915D01*
X011837Y001913D02*
X011444Y001913D01*
X011444Y001911D02*
X011837Y001911D01*
X011837Y001908D02*
X011444Y001908D01*
X011444Y001906D02*
X011837Y001906D01*
X011837Y001903D02*
X011444Y001903D01*
X011444Y001901D02*
X011837Y001901D01*
X011837Y001898D02*
X011444Y001898D01*
X011444Y001896D02*
X011837Y001896D01*
X011837Y001894D02*
X011444Y001894D01*
X011444Y001891D02*
X011837Y001891D01*
X011837Y001889D02*
X011444Y001889D01*
X011444Y001886D02*
X011837Y001886D01*
X011837Y001884D02*
X011444Y001884D01*
X011444Y001881D02*
X011837Y001881D01*
X011837Y001879D02*
X011444Y001879D01*
X011444Y001876D02*
X011837Y001876D01*
X011837Y001874D02*
X011444Y001874D01*
X011444Y001872D02*
X011837Y001872D01*
X011837Y001869D02*
X011444Y001869D01*
X011444Y001867D02*
X011837Y001867D01*
X011837Y001864D02*
X011444Y001864D01*
X011444Y001862D02*
X011837Y001862D01*
X011837Y001859D02*
X011444Y001859D01*
X011444Y001857D02*
X011837Y001857D01*
X011837Y001855D02*
X011444Y001855D01*
X011444Y001852D02*
X011837Y001852D01*
X011837Y001850D02*
X011444Y001850D01*
X011444Y001847D02*
X011837Y001847D01*
X011837Y001845D02*
X011444Y001845D01*
X011444Y001842D02*
X011837Y001842D01*
X011837Y001840D02*
X011444Y001840D01*
X011444Y001837D02*
X011837Y001837D01*
X011837Y001835D02*
X011444Y001835D01*
X011444Y001833D02*
X011837Y001833D01*
X011837Y001830D02*
X011444Y001830D01*
X011444Y001828D02*
X011837Y001828D01*
X011837Y001825D02*
X011444Y001825D01*
X011444Y001823D02*
X011837Y001823D01*
X011837Y001820D02*
X011444Y001820D01*
X011444Y001818D02*
X011837Y001818D01*
X011836Y001816D02*
X011445Y001816D01*
X011445Y001813D02*
X011836Y001813D01*
X011836Y001811D02*
X011445Y001811D01*
X011446Y001808D02*
X011836Y001808D01*
X011835Y001806D02*
X011446Y001806D01*
X011446Y001803D02*
X011835Y001803D01*
X011835Y001801D02*
X011446Y001801D01*
X011447Y001798D02*
X011834Y001798D01*
X011834Y001796D02*
X011447Y001796D01*
X011447Y001794D02*
X011834Y001794D01*
X011834Y001791D02*
X011447Y001791D01*
X011448Y001789D02*
X011833Y001789D01*
X011833Y001786D02*
X011448Y001786D01*
X011448Y001784D02*
X011833Y001784D01*
X011833Y001781D02*
X011449Y001781D01*
X011449Y001779D02*
X011832Y001779D01*
X011831Y001777D02*
X011450Y001777D01*
X011451Y001774D02*
X011830Y001774D01*
X011829Y001772D02*
X011452Y001772D01*
X011453Y001769D02*
X011828Y001769D01*
X011828Y001767D02*
X011454Y001767D01*
X011454Y001764D02*
X011827Y001764D01*
X011826Y001762D02*
X011455Y001762D01*
X011456Y001759D02*
X011825Y001759D01*
X011824Y001757D02*
X011457Y001757D01*
X011458Y001755D02*
X011823Y001755D01*
X011822Y001752D02*
X011459Y001752D01*
X011460Y001750D02*
X011822Y001750D01*
X011821Y001747D02*
X011460Y001747D01*
X011461Y001745D02*
X011820Y001745D01*
X011819Y001742D02*
X011462Y001742D01*
X011463Y001740D02*
X011818Y001740D01*
X011817Y001738D02*
X011464Y001738D01*
X011466Y001735D02*
X011815Y001735D01*
X011814Y001733D02*
X011467Y001733D01*
X011469Y001730D02*
X011812Y001730D01*
X011811Y001728D02*
X011470Y001728D01*
X011472Y001725D02*
X011809Y001725D01*
X011808Y001723D02*
X011474Y001723D01*
X011475Y001720D02*
X011806Y001720D01*
X011805Y001718D02*
X011477Y001718D01*
X011478Y001716D02*
X011803Y001716D01*
X011801Y001713D02*
X011480Y001713D01*
X011481Y001711D02*
X011800Y001711D01*
X011798Y001708D02*
X011483Y001708D01*
X011484Y001706D02*
X011797Y001706D01*
X011795Y001703D02*
X011486Y001703D01*
X011488Y001701D02*
X011793Y001701D01*
X011791Y001699D02*
X011490Y001699D01*
X011493Y001696D02*
X011789Y001696D01*
X011786Y001694D02*
X011495Y001694D01*
X011497Y001691D02*
X011784Y001691D01*
X011781Y001689D02*
X011500Y001689D01*
X011502Y001686D02*
X011779Y001686D01*
X011776Y001684D02*
X011505Y001684D01*
X011507Y001681D02*
X011774Y001681D01*
X011771Y001679D02*
X011510Y001679D01*
X011512Y001677D02*
X011769Y001677D01*
X011767Y001674D02*
X011514Y001674D01*
X011517Y001672D02*
X011764Y001672D01*
X011761Y001669D02*
X011520Y001669D01*
X011524Y001667D02*
X011757Y001667D01*
X011753Y001664D02*
X011528Y001664D01*
X011532Y001662D02*
X011749Y001662D01*
X011745Y001660D02*
X011536Y001660D01*
X011540Y001657D02*
X011741Y001657D01*
X011738Y001655D02*
X011544Y001655D01*
X011547Y001652D02*
X011734Y001652D01*
X011730Y001650D02*
X011551Y001650D01*
X011555Y001647D02*
X011597Y001633D01*
X011641Y001628D01*
X011684Y001633D01*
X011726Y001647D01*
X011719Y001645D02*
X011562Y001645D01*
X011569Y001642D02*
X011712Y001642D01*
X011705Y001640D02*
X011576Y001640D01*
X011583Y001638D02*
X011698Y001638D01*
X011691Y001635D02*
X011590Y001635D01*
X011598Y001633D02*
X011683Y001633D01*
X011662Y001630D02*
X011619Y001630D01*
X011448Y003505D02*
X011833Y003505D01*
X011833Y003507D02*
X011448Y003507D01*
X011449Y003509D02*
X011832Y003509D01*
X011832Y003512D02*
X011450Y003512D01*
X011450Y003514D02*
X011831Y003514D01*
X011830Y003517D02*
X011451Y003517D01*
X011452Y003519D02*
X011829Y003519D01*
X011828Y003522D02*
X011453Y003522D01*
X011454Y003524D02*
X011827Y003524D01*
X011826Y003526D02*
X011455Y003526D01*
X011455Y003529D02*
X011826Y003529D01*
X011825Y003531D02*
X011456Y003531D01*
X011457Y003534D02*
X011824Y003534D01*
X011823Y003536D02*
X011458Y003536D01*
X011459Y003539D02*
X011822Y003539D01*
X011821Y003541D02*
X011460Y003541D01*
X011461Y003544D02*
X011820Y003544D01*
X011820Y003546D02*
X011461Y003546D01*
X011462Y003548D02*
X011819Y003548D01*
X011818Y003551D02*
X011463Y003551D01*
X011465Y003553D02*
X011816Y003553D01*
X011815Y003556D02*
X011466Y003556D01*
X011468Y003558D02*
X011813Y003558D01*
X011812Y003561D02*
X011469Y003561D01*
X011471Y003563D02*
X011810Y003563D01*
X011809Y003565D02*
X011472Y003565D01*
X011474Y003568D02*
X011807Y003568D01*
X011806Y003570D02*
X011475Y003570D01*
X011477Y003573D02*
X011804Y003573D01*
X011803Y003575D02*
X011478Y003575D01*
X011480Y003578D02*
X011801Y003578D01*
X011800Y003580D02*
X011482Y003580D01*
X011483Y003583D02*
X011798Y003583D01*
X011797Y003585D02*
X011485Y003585D01*
X011486Y003587D02*
X011795Y003587D01*
X011793Y003590D02*
X011488Y003590D01*
X011491Y003592D02*
X011790Y003592D01*
X011788Y003595D02*
X011493Y003595D01*
X011496Y003597D02*
X011786Y003597D01*
X011783Y003600D02*
X011498Y003600D01*
X011500Y003602D02*
X011781Y003602D01*
X011778Y003604D02*
X011503Y003604D01*
X011505Y003607D02*
X011776Y003607D01*
X011773Y003609D02*
X011508Y003609D01*
X011510Y003612D02*
X011771Y003612D01*
X011769Y003614D02*
X011513Y003614D01*
X011515Y003617D02*
X011766Y003617D01*
X011764Y003619D02*
X011517Y003619D01*
X011521Y003622D02*
X011760Y003622D01*
X011756Y003624D02*
X011525Y003624D01*
X011529Y003626D02*
X011752Y003626D01*
X011748Y003629D02*
X011533Y003629D01*
X011537Y003631D02*
X011744Y003631D01*
X011741Y003634D02*
X011541Y003634D01*
X011544Y003636D02*
X011737Y003636D01*
X011733Y003639D02*
X011548Y003639D01*
X011552Y003641D02*
X011729Y003641D01*
X011724Y003643D02*
X011557Y003643D01*
X011564Y003646D02*
X011717Y003646D01*
X011710Y003648D02*
X011571Y003648D01*
X011578Y003651D02*
X011703Y003651D01*
X011696Y003653D02*
X011585Y003653D01*
X011592Y003656D02*
X011689Y003656D01*
X011679Y003658D02*
X011602Y003658D01*
X011624Y003661D02*
X011657Y003661D01*
X008219Y003466D02*
X008219Y003170D01*
X008214Y003126D01*
X008200Y003085D01*
X008176Y003048D01*
X008145Y003016D01*
X008108Y002993D01*
X008066Y002978D01*
X008022Y002973D01*
X007979Y002978D01*
X007937Y002993D01*
X007900Y003016D01*
X007869Y003048D01*
X007845Y003085D01*
X007831Y003126D01*
X007826Y003170D01*
X007826Y003466D01*
X008219Y003466D01*
X008214Y003509D01*
X008200Y003551D01*
X008176Y003588D01*
X008145Y003619D01*
X008108Y003643D01*
X008066Y003657D01*
X008022Y003662D01*
X007979Y003657D01*
X007937Y003643D01*
X007900Y003619D01*
X007869Y003588D01*
X007845Y003551D01*
X007831Y003509D01*
X007826Y003466D01*
X007826Y003468D02*
X008219Y003468D01*
X008219Y003470D02*
X007826Y003470D01*
X007826Y003473D02*
X008218Y003473D01*
X008218Y003475D02*
X007827Y003475D01*
X007827Y003478D02*
X008218Y003478D01*
X008218Y003480D02*
X007827Y003480D01*
X007828Y003483D02*
X008217Y003483D01*
X008217Y003485D02*
X007828Y003485D01*
X007828Y003487D02*
X008217Y003487D01*
X008217Y003490D02*
X007828Y003490D01*
X007829Y003492D02*
X008216Y003492D01*
X008216Y003495D02*
X007829Y003495D01*
X007829Y003497D02*
X008216Y003497D01*
X008215Y003500D02*
X007829Y003500D01*
X007830Y003502D02*
X008215Y003502D01*
X008215Y003505D02*
X007830Y003505D01*
X007830Y003507D02*
X008215Y003507D01*
X008214Y003509D02*
X007831Y003509D01*
X007831Y003512D02*
X008213Y003512D01*
X008213Y003514D02*
X007832Y003514D01*
X007833Y003517D02*
X008212Y003517D01*
X008211Y003519D02*
X007834Y003519D01*
X007835Y003522D02*
X008210Y003522D01*
X008209Y003524D02*
X007836Y003524D01*
X007837Y003526D02*
X008208Y003526D01*
X008208Y003529D02*
X007837Y003529D01*
X007838Y003531D02*
X008207Y003531D01*
X008206Y003534D02*
X007839Y003534D01*
X007840Y003536D02*
X008205Y003536D01*
X008204Y003539D02*
X007841Y003539D01*
X007842Y003541D02*
X008203Y003541D01*
X008202Y003544D02*
X007842Y003544D01*
X007843Y003546D02*
X008202Y003546D01*
X008201Y003548D02*
X007844Y003548D01*
X007845Y003551D02*
X008200Y003551D01*
X008198Y003553D02*
X007847Y003553D01*
X007848Y003556D02*
X008197Y003556D01*
X008195Y003558D02*
X007850Y003558D01*
X007851Y003561D02*
X008194Y003561D01*
X008192Y003563D02*
X007853Y003563D01*
X007854Y003565D02*
X008191Y003565D01*
X008189Y003568D02*
X007856Y003568D01*
X007857Y003570D02*
X008188Y003570D01*
X008186Y003573D02*
X007859Y003573D01*
X007860Y003575D02*
X008185Y003575D01*
X008183Y003578D02*
X007862Y003578D01*
X007863Y003580D02*
X008181Y003580D01*
X008180Y003583D02*
X007865Y003583D01*
X007866Y003585D02*
X008178Y003585D01*
X008177Y003587D02*
X007868Y003587D01*
X007870Y003590D02*
X008175Y003590D01*
X008172Y003592D02*
X007873Y003592D01*
X007875Y003595D02*
X008170Y003595D01*
X008167Y003597D02*
X007877Y003597D01*
X007880Y003600D02*
X008165Y003600D01*
X008163Y003602D02*
X007882Y003602D01*
X007885Y003604D02*
X008160Y003604D01*
X008158Y003607D02*
X007887Y003607D01*
X007890Y003609D02*
X008155Y003609D01*
X008153Y003612D02*
X007892Y003612D01*
X007894Y003614D02*
X008150Y003614D01*
X008148Y003617D02*
X007897Y003617D01*
X007899Y003619D02*
X008146Y003619D01*
X008142Y003622D02*
X007903Y003622D01*
X007907Y003624D02*
X008138Y003624D01*
X008134Y003626D02*
X007911Y003626D01*
X007915Y003629D02*
X008130Y003629D01*
X008126Y003631D02*
X007919Y003631D01*
X007922Y003634D02*
X008122Y003634D01*
X008119Y003636D02*
X007926Y003636D01*
X007930Y003639D02*
X008115Y003639D01*
X008111Y003641D02*
X007934Y003641D01*
X007939Y003643D02*
X008106Y003643D01*
X008099Y003646D02*
X007946Y003646D01*
X007953Y003648D02*
X008092Y003648D01*
X008085Y003651D02*
X007960Y003651D01*
X007967Y003653D02*
X008078Y003653D01*
X008071Y003656D02*
X007974Y003656D01*
X007984Y003658D02*
X008061Y003658D01*
X008039Y003661D02*
X008006Y003661D01*
X007826Y003463D02*
X008219Y003463D01*
X008219Y003461D02*
X007826Y003461D01*
X007826Y003458D02*
X008219Y003458D01*
X008219Y003456D02*
X007826Y003456D01*
X007826Y003453D02*
X008219Y003453D01*
X008219Y003451D02*
X007826Y003451D01*
X007826Y003449D02*
X008219Y003449D01*
X008219Y003446D02*
X007826Y003446D01*
X007826Y003444D02*
X008219Y003444D01*
X008219Y003441D02*
X007826Y003441D01*
X007826Y003439D02*
X008219Y003439D01*
X008219Y003436D02*
X007826Y003436D01*
X007826Y003434D02*
X008219Y003434D01*
X008219Y003431D02*
X007826Y003431D01*
X007826Y003429D02*
X008219Y003429D01*
X008219Y003427D02*
X007826Y003427D01*
X007826Y003424D02*
X008219Y003424D01*
X008219Y003422D02*
X007826Y003422D01*
X007826Y003419D02*
X008219Y003419D01*
X008219Y003417D02*
X007826Y003417D01*
X007826Y003414D02*
X008219Y003414D01*
X008219Y003412D02*
X007826Y003412D01*
X007826Y003410D02*
X008219Y003410D01*
X008219Y003407D02*
X007826Y003407D01*
X007826Y003405D02*
X008219Y003405D01*
X008219Y003402D02*
X007826Y003402D01*
X007826Y003400D02*
X008219Y003400D01*
X008219Y003397D02*
X007826Y003397D01*
X007826Y003395D02*
X008219Y003395D01*
X008219Y003392D02*
X007826Y003392D01*
X007826Y003390D02*
X008219Y003390D01*
X008219Y003388D02*
X007826Y003388D01*
X007826Y003385D02*
X008219Y003385D01*
X008219Y003383D02*
X007826Y003383D01*
X007826Y003380D02*
X008219Y003380D01*
X008219Y003378D02*
X007826Y003378D01*
X007826Y003375D02*
X008219Y003375D01*
X008219Y003373D02*
X007826Y003373D01*
X007826Y003371D02*
X008219Y003371D01*
X008219Y003368D02*
X007826Y003368D01*
X007826Y003366D02*
X008219Y003366D01*
X008219Y003363D02*
X007826Y003363D01*
X007826Y003361D02*
X008219Y003361D01*
X008219Y003358D02*
X007826Y003358D01*
X007826Y003356D02*
X008219Y003356D01*
X008219Y003353D02*
X007826Y003353D01*
X007826Y003351D02*
X008219Y003351D01*
X008219Y003349D02*
X007826Y003349D01*
X007826Y003346D02*
X008219Y003346D01*
X008219Y003344D02*
X007826Y003344D01*
X007826Y003341D02*
X008219Y003341D01*
X008219Y003339D02*
X007826Y003339D01*
X007826Y003336D02*
X008219Y003336D01*
X008219Y003334D02*
X007826Y003334D01*
X007826Y003332D02*
X008219Y003332D01*
X008219Y003329D02*
X007826Y003329D01*
X007826Y003327D02*
X008219Y003327D01*
X008219Y003324D02*
X007826Y003324D01*
X007826Y003322D02*
X008219Y003322D01*
X008219Y003319D02*
X007826Y003319D01*
X007826Y003317D02*
X008219Y003317D01*
X008219Y003314D02*
X007826Y003314D01*
X007826Y003312D02*
X008219Y003312D01*
X008219Y003310D02*
X007826Y003310D01*
X007826Y003307D02*
X008219Y003307D01*
X008219Y003305D02*
X007826Y003305D01*
X007826Y003302D02*
X008219Y003302D01*
X008219Y003300D02*
X007826Y003300D01*
X007826Y003297D02*
X008219Y003297D01*
X008219Y003295D02*
X007826Y003295D01*
X007826Y003293D02*
X008219Y003293D01*
X008219Y003290D02*
X007826Y003290D01*
X007826Y003288D02*
X008219Y003288D01*
X008219Y003285D02*
X007826Y003285D01*
X007826Y003283D02*
X008219Y003283D01*
X008219Y003280D02*
X007826Y003280D01*
X007826Y003278D02*
X008219Y003278D01*
X008219Y003275D02*
X007826Y003275D01*
X007826Y003273D02*
X008219Y003273D01*
X008219Y003271D02*
X007826Y003271D01*
X007826Y003268D02*
X008219Y003268D01*
X008219Y003266D02*
X007826Y003266D01*
X007826Y003263D02*
X008219Y003263D01*
X008219Y003261D02*
X007826Y003261D01*
X007826Y003258D02*
X008219Y003258D01*
X008219Y003256D02*
X007826Y003256D01*
X007826Y003254D02*
X008219Y003254D01*
X008219Y003251D02*
X007826Y003251D01*
X007826Y003249D02*
X008219Y003249D01*
X008219Y003246D02*
X007826Y003246D01*
X007826Y003244D02*
X008219Y003244D01*
X008219Y003241D02*
X007826Y003241D01*
X007826Y003239D02*
X008219Y003239D01*
X008219Y003236D02*
X007826Y003236D01*
X007826Y003234D02*
X008219Y003234D01*
X008219Y003232D02*
X007826Y003232D01*
X007826Y003229D02*
X008219Y003229D01*
X008219Y003227D02*
X007826Y003227D01*
X007826Y003224D02*
X008219Y003224D01*
X008219Y003222D02*
X007826Y003222D01*
X007826Y003219D02*
X008219Y003219D01*
X008219Y003217D02*
X007826Y003217D01*
X007826Y003215D02*
X008219Y003215D01*
X008219Y003212D02*
X007826Y003212D01*
X007826Y003210D02*
X008219Y003210D01*
X008219Y003207D02*
X007826Y003207D01*
X007826Y003205D02*
X008219Y003205D01*
X008219Y003202D02*
X007826Y003202D01*
X007826Y003200D02*
X008219Y003200D01*
X008219Y003197D02*
X007826Y003197D01*
X007826Y003195D02*
X008219Y003195D01*
X008219Y003193D02*
X007826Y003193D01*
X007826Y003190D02*
X008219Y003190D01*
X008219Y003188D02*
X007826Y003188D01*
X007826Y003185D02*
X008219Y003185D01*
X008219Y003183D02*
X007826Y003183D01*
X007826Y003180D02*
X008219Y003180D01*
X008219Y003178D02*
X007826Y003178D01*
X007826Y003176D02*
X008219Y003176D01*
X008219Y003173D02*
X007826Y003173D01*
X007826Y003171D02*
X008219Y003171D01*
X008219Y003168D02*
X007826Y003168D01*
X007826Y003166D02*
X008219Y003166D01*
X008219Y003163D02*
X007826Y003163D01*
X007827Y003161D02*
X008218Y003161D01*
X008218Y003158D02*
X007827Y003158D01*
X007827Y003156D02*
X008218Y003156D01*
X008217Y003154D02*
X007827Y003154D01*
X007828Y003151D02*
X008217Y003151D01*
X008217Y003149D02*
X007828Y003149D01*
X007828Y003146D02*
X008217Y003146D01*
X008216Y003144D02*
X007829Y003144D01*
X007829Y003141D02*
X008216Y003141D01*
X008216Y003139D02*
X007829Y003139D01*
X007829Y003137D02*
X008215Y003137D01*
X008215Y003134D02*
X007830Y003134D01*
X007830Y003132D02*
X008215Y003132D01*
X008215Y003129D02*
X007830Y003129D01*
X007830Y003127D02*
X008214Y003127D01*
X008214Y003124D02*
X007831Y003124D01*
X007832Y003122D02*
X008213Y003122D01*
X008212Y003119D02*
X007833Y003119D01*
X007834Y003117D02*
X008211Y003117D01*
X008210Y003115D02*
X007835Y003115D01*
X007836Y003112D02*
X008209Y003112D01*
X008208Y003110D02*
X007836Y003110D01*
X007837Y003107D02*
X008208Y003107D01*
X008207Y003105D02*
X007838Y003105D01*
X007839Y003102D02*
X008206Y003102D01*
X008205Y003100D02*
X007840Y003100D01*
X007841Y003098D02*
X008204Y003098D01*
X008203Y003095D02*
X007842Y003095D01*
X007842Y003093D02*
X008203Y003093D01*
X008202Y003090D02*
X007843Y003090D01*
X007844Y003088D02*
X008201Y003088D01*
X008200Y003085D02*
X007845Y003085D01*
X007846Y003083D02*
X008199Y003083D01*
X008197Y003080D02*
X007848Y003080D01*
X007849Y003078D02*
X008196Y003078D01*
X008194Y003076D02*
X007851Y003076D01*
X007852Y003073D02*
X008192Y003073D01*
X008191Y003071D02*
X007854Y003071D01*
X007856Y003068D02*
X008189Y003068D01*
X008188Y003066D02*
X007857Y003066D01*
X007859Y003063D02*
X008186Y003063D01*
X008185Y003061D02*
X007860Y003061D01*
X007862Y003059D02*
X008183Y003059D01*
X008182Y003056D02*
X007863Y003056D01*
X007865Y003054D02*
X008180Y003054D01*
X008179Y003051D02*
X007866Y003051D01*
X007868Y003049D02*
X008177Y003049D01*
X008175Y003046D02*
X007870Y003046D01*
X007872Y003044D02*
X008173Y003044D01*
X008170Y003041D02*
X007875Y003041D01*
X007877Y003039D02*
X008168Y003039D01*
X008165Y003037D02*
X007879Y003037D01*
X007882Y003034D02*
X008163Y003034D01*
X008161Y003032D02*
X007884Y003032D01*
X007887Y003029D02*
X008158Y003029D01*
X008156Y003027D02*
X007889Y003027D01*
X007892Y003024D02*
X008153Y003024D01*
X008151Y003022D02*
X007894Y003022D01*
X007897Y003020D02*
X008148Y003020D01*
X008146Y003017D02*
X007899Y003017D01*
X007902Y003015D02*
X008142Y003015D01*
X008139Y003012D02*
X007906Y003012D01*
X007910Y003010D02*
X008135Y003010D01*
X008131Y003007D02*
X007914Y003007D01*
X007918Y003005D02*
X008127Y003005D01*
X008123Y003002D02*
X007922Y003002D01*
X007926Y003000D02*
X008119Y003000D01*
X008115Y002998D02*
X007930Y002998D01*
X007933Y002995D02*
X008111Y002995D01*
X008107Y002993D02*
X007938Y002993D01*
X007945Y002990D02*
X008100Y002990D01*
X008093Y002988D02*
X007951Y002988D01*
X007958Y002985D02*
X008086Y002985D01*
X008079Y002983D02*
X007965Y002983D01*
X007972Y002981D02*
X008073Y002981D01*
X008064Y002978D02*
X007981Y002978D01*
X008002Y002976D02*
X008042Y002976D01*
X008022Y002621D02*
X007979Y002616D01*
X007937Y002601D01*
X007900Y002578D01*
X007869Y002546D01*
X007845Y002509D01*
X007831Y002468D01*
X007826Y002424D01*
X007826Y001825D01*
X007831Y001781D01*
X007845Y001739D01*
X007869Y001702D01*
X007900Y001671D01*
X007937Y001647D01*
X008108Y001647D01*
X008066Y001633D01*
X008022Y001628D01*
X007979Y001633D01*
X007937Y001647D01*
X007933Y001650D02*
X008112Y001650D01*
X008116Y001652D02*
X007929Y001652D01*
X007925Y001655D02*
X008119Y001655D01*
X008123Y001657D02*
X007922Y001657D01*
X007918Y001660D02*
X008127Y001660D01*
X008131Y001662D02*
X007914Y001662D01*
X007910Y001664D02*
X008135Y001664D01*
X008139Y001667D02*
X007906Y001667D01*
X007902Y001669D02*
X008143Y001669D01*
X008145Y001671D02*
X008108Y001647D01*
X008101Y001645D02*
X007944Y001645D01*
X007951Y001642D02*
X008094Y001642D01*
X008087Y001640D02*
X007958Y001640D01*
X007965Y001638D02*
X008080Y001638D01*
X008073Y001635D02*
X007972Y001635D01*
X007980Y001633D02*
X008065Y001633D01*
X008044Y001630D02*
X008001Y001630D01*
X007899Y001672D02*
X008146Y001672D01*
X008145Y001671D02*
X008176Y001702D01*
X008200Y001739D01*
X008214Y001781D01*
X008219Y001825D01*
X008219Y002424D01*
X008214Y002468D01*
X008200Y002509D01*
X008176Y002546D01*
X008145Y002578D01*
X008108Y002601D01*
X008066Y002616D01*
X008022Y002621D01*
X008016Y002620D02*
X008029Y002620D01*
X008051Y002617D02*
X007994Y002617D01*
X007977Y002615D02*
X008068Y002615D01*
X008075Y002613D02*
X007970Y002613D01*
X007963Y002610D02*
X008082Y002610D01*
X008089Y002608D02*
X007956Y002608D01*
X007949Y002605D02*
X008096Y002605D01*
X008103Y002603D02*
X007942Y002603D01*
X007936Y002600D02*
X008109Y002600D01*
X008113Y002598D02*
X007932Y002598D01*
X007928Y002595D02*
X008117Y002595D01*
X008121Y002593D02*
X007924Y002593D01*
X007920Y002591D02*
X008125Y002591D01*
X008128Y002588D02*
X007916Y002588D01*
X007913Y002586D02*
X008132Y002586D01*
X008136Y002583D02*
X007909Y002583D01*
X007905Y002581D02*
X008140Y002581D01*
X008144Y002578D02*
X007901Y002578D01*
X007898Y002576D02*
X008147Y002576D01*
X008149Y002574D02*
X007896Y002574D01*
X007893Y002571D02*
X008152Y002571D01*
X008154Y002569D02*
X007891Y002569D01*
X007888Y002566D02*
X008157Y002566D01*
X008159Y002564D02*
X007886Y002564D01*
X007883Y002561D02*
X008161Y002561D01*
X008164Y002559D02*
X007881Y002559D01*
X007879Y002556D02*
X008166Y002556D01*
X008169Y002554D02*
X007876Y002554D01*
X007874Y002552D02*
X008171Y002552D01*
X008174Y002549D02*
X007871Y002549D01*
X007869Y002547D02*
X008176Y002547D01*
X008178Y002544D02*
X007867Y002544D01*
X007866Y002542D02*
X008179Y002542D01*
X008181Y002539D02*
X007864Y002539D01*
X007863Y002537D02*
X008182Y002537D01*
X008184Y002535D02*
X007861Y002535D01*
X007860Y002532D02*
X008185Y002532D01*
X008187Y002530D02*
X007858Y002530D01*
X007856Y002527D02*
X008188Y002527D01*
X008190Y002525D02*
X007855Y002525D01*
X007853Y002522D02*
X008192Y002522D01*
X008193Y002520D02*
X007852Y002520D01*
X007850Y002517D02*
X008195Y002517D01*
X008196Y002515D02*
X007849Y002515D01*
X007847Y002513D02*
X008198Y002513D01*
X008199Y002510D02*
X007846Y002510D01*
X007845Y002508D02*
X008200Y002508D01*
X008201Y002505D02*
X007844Y002505D01*
X007843Y002503D02*
X008202Y002503D01*
X008203Y002500D02*
X007842Y002500D01*
X007841Y002498D02*
X008204Y002498D01*
X008205Y002496D02*
X007840Y002496D01*
X007839Y002493D02*
X008205Y002493D01*
X008206Y002491D02*
X007839Y002491D01*
X007838Y002488D02*
X008207Y002488D01*
X008208Y002486D02*
X007837Y002486D01*
X007836Y002483D02*
X008209Y002483D01*
X008210Y002481D02*
X007835Y002481D01*
X007834Y002478D02*
X008211Y002478D01*
X008211Y002476D02*
X007833Y002476D01*
X007833Y002474D02*
X008212Y002474D01*
X008213Y002471D02*
X007832Y002471D01*
X007831Y002469D02*
X008214Y002469D01*
X008214Y002466D02*
X007830Y002466D01*
X007830Y002464D02*
X008215Y002464D01*
X008215Y002461D02*
X007830Y002461D01*
X007830Y002459D02*
X008215Y002459D01*
X008216Y002457D02*
X007829Y002457D01*
X007829Y002454D02*
X008216Y002454D01*
X008216Y002452D02*
X007829Y002452D01*
X007828Y002449D02*
X008216Y002449D01*
X008217Y002447D02*
X007828Y002447D01*
X007828Y002444D02*
X008217Y002444D01*
X008217Y002442D02*
X007828Y002442D01*
X007827Y002439D02*
X008218Y002439D01*
X008218Y002437D02*
X007827Y002437D01*
X007827Y002435D02*
X008218Y002435D01*
X008218Y002432D02*
X007827Y002432D01*
X007826Y002430D02*
X008219Y002430D01*
X008219Y002427D02*
X007826Y002427D01*
X007826Y002425D02*
X008219Y002425D01*
X008219Y002422D02*
X007826Y002422D01*
X007826Y002420D02*
X008219Y002420D01*
X008219Y002418D02*
X007826Y002418D01*
X007826Y002415D02*
X008219Y002415D01*
X008219Y002413D02*
X007826Y002413D01*
X007826Y002410D02*
X008219Y002410D01*
X008219Y002408D02*
X007826Y002408D01*
X007826Y002405D02*
X008219Y002405D01*
X008219Y002403D02*
X007826Y002403D01*
X007826Y002400D02*
X008219Y002400D01*
X008219Y002398D02*
X007826Y002398D01*
X007826Y002396D02*
X008219Y002396D01*
X008219Y002393D02*
X007826Y002393D01*
X007826Y002391D02*
X008219Y002391D01*
X008219Y002388D02*
X007826Y002388D01*
X007826Y002386D02*
X008219Y002386D01*
X008219Y002383D02*
X007826Y002383D01*
X007826Y002381D02*
X008219Y002381D01*
X008219Y002379D02*
X007826Y002379D01*
X007826Y002376D02*
X008219Y002376D01*
X008219Y002374D02*
X007826Y002374D01*
X007826Y002371D02*
X008219Y002371D01*
X008219Y002369D02*
X007826Y002369D01*
X007826Y002366D02*
X008219Y002366D01*
X008219Y002364D02*
X007826Y002364D01*
X007826Y002361D02*
X008219Y002361D01*
X008219Y002359D02*
X007826Y002359D01*
X007826Y002357D02*
X008219Y002357D01*
X008219Y002354D02*
X007826Y002354D01*
X007826Y002352D02*
X008219Y002352D01*
X008219Y002349D02*
X007826Y002349D01*
X007826Y002347D02*
X008219Y002347D01*
X008219Y002344D02*
X007826Y002344D01*
X007826Y002342D02*
X008219Y002342D01*
X008219Y002340D02*
X007826Y002340D01*
X007826Y002337D02*
X008219Y002337D01*
X008219Y002335D02*
X007826Y002335D01*
X007826Y002332D02*
X008219Y002332D01*
X008219Y002330D02*
X007826Y002330D01*
X007826Y002327D02*
X008219Y002327D01*
X008219Y002325D02*
X007826Y002325D01*
X007826Y002322D02*
X008219Y002322D01*
X008219Y002320D02*
X007826Y002320D01*
X007826Y002318D02*
X008219Y002318D01*
X008219Y002315D02*
X007826Y002315D01*
X007826Y002313D02*
X008219Y002313D01*
X008219Y002310D02*
X007826Y002310D01*
X007826Y002308D02*
X008219Y002308D01*
X008219Y002305D02*
X007826Y002305D01*
X007826Y002303D02*
X008219Y002303D01*
X008219Y002301D02*
X007826Y002301D01*
X007826Y002298D02*
X008219Y002298D01*
X008219Y002296D02*
X007826Y002296D01*
X007826Y002293D02*
X008219Y002293D01*
X008219Y002291D02*
X007826Y002291D01*
X007826Y002288D02*
X008219Y002288D01*
X008219Y002286D02*
X007826Y002286D01*
X007826Y002283D02*
X008219Y002283D01*
X008219Y002281D02*
X007826Y002281D01*
X007826Y002279D02*
X008219Y002279D01*
X008219Y002276D02*
X007826Y002276D01*
X007826Y002274D02*
X008219Y002274D01*
X008219Y002271D02*
X007826Y002271D01*
X007826Y002269D02*
X008219Y002269D01*
X008219Y002266D02*
X007826Y002266D01*
X007826Y002264D02*
X008219Y002264D01*
X008219Y002262D02*
X007826Y002262D01*
X007826Y002259D02*
X008219Y002259D01*
X008219Y002257D02*
X007826Y002257D01*
X007826Y002254D02*
X008219Y002254D01*
X008219Y002252D02*
X007826Y002252D01*
X007826Y002249D02*
X008219Y002249D01*
X008219Y002247D02*
X007826Y002247D01*
X007826Y002244D02*
X008219Y002244D01*
X008219Y002242D02*
X007826Y002242D01*
X007826Y002240D02*
X008219Y002240D01*
X008219Y002237D02*
X007826Y002237D01*
X007826Y002235D02*
X008219Y002235D01*
X008219Y002232D02*
X007826Y002232D01*
X007826Y002230D02*
X008219Y002230D01*
X008219Y002227D02*
X007826Y002227D01*
X007826Y002225D02*
X008219Y002225D01*
X008219Y002223D02*
X007826Y002223D01*
X007826Y002220D02*
X008219Y002220D01*
X008219Y002218D02*
X007826Y002218D01*
X007826Y002215D02*
X008219Y002215D01*
X008219Y002213D02*
X007826Y002213D01*
X007826Y002210D02*
X008219Y002210D01*
X008219Y002208D02*
X007826Y002208D01*
X007826Y002206D02*
X008219Y002206D01*
X008219Y002203D02*
X007826Y002203D01*
X007826Y002201D02*
X008219Y002201D01*
X008219Y002198D02*
X007826Y002198D01*
X007826Y002196D02*
X008219Y002196D01*
X008219Y002193D02*
X007826Y002193D01*
X007826Y002191D02*
X008219Y002191D01*
X008219Y002188D02*
X007826Y002188D01*
X007826Y002186D02*
X008219Y002186D01*
X008219Y002184D02*
X007826Y002184D01*
X007826Y002181D02*
X008219Y002181D01*
X008219Y002179D02*
X007826Y002179D01*
X007826Y002176D02*
X008219Y002176D01*
X008219Y002174D02*
X007826Y002174D01*
X007826Y002171D02*
X008219Y002171D01*
X008219Y002169D02*
X007826Y002169D01*
X007826Y002167D02*
X008219Y002167D01*
X008219Y002164D02*
X007826Y002164D01*
X007826Y002162D02*
X008219Y002162D01*
X008219Y002159D02*
X007826Y002159D01*
X007826Y002157D02*
X008219Y002157D01*
X008219Y002154D02*
X007826Y002154D01*
X007826Y002152D02*
X008219Y002152D01*
X008219Y002149D02*
X007826Y002149D01*
X007826Y002147D02*
X008219Y002147D01*
X008219Y002145D02*
X007826Y002145D01*
X007826Y002142D02*
X008219Y002142D01*
X008219Y002140D02*
X007826Y002140D01*
X007826Y002137D02*
X008219Y002137D01*
X008219Y002135D02*
X007826Y002135D01*
X007826Y002132D02*
X008219Y002132D01*
X008219Y002130D02*
X007826Y002130D01*
X007826Y002128D02*
X008219Y002128D01*
X008219Y002125D02*
X007826Y002125D01*
X007826Y002123D02*
X008219Y002123D01*
X008219Y002120D02*
X007826Y002120D01*
X007826Y002118D02*
X008219Y002118D01*
X008219Y002115D02*
X007826Y002115D01*
X007826Y002113D02*
X008219Y002113D01*
X008219Y002110D02*
X007826Y002110D01*
X007826Y002108D02*
X008219Y002108D01*
X008219Y002106D02*
X007826Y002106D01*
X007826Y002103D02*
X008219Y002103D01*
X008219Y002101D02*
X007826Y002101D01*
X007826Y002098D02*
X008219Y002098D01*
X008219Y002096D02*
X007826Y002096D01*
X007826Y002093D02*
X008219Y002093D01*
X008219Y002091D02*
X007826Y002091D01*
X007826Y002089D02*
X008219Y002089D01*
X008219Y002086D02*
X007826Y002086D01*
X007826Y002084D02*
X008219Y002084D01*
X008219Y002081D02*
X007826Y002081D01*
X007826Y002079D02*
X008219Y002079D01*
X008219Y002076D02*
X007826Y002076D01*
X007826Y002074D02*
X008219Y002074D01*
X008219Y002071D02*
X007826Y002071D01*
X007826Y002069D02*
X008219Y002069D01*
X008219Y002067D02*
X007826Y002067D01*
X007826Y002064D02*
X008219Y002064D01*
X008219Y002062D02*
X007826Y002062D01*
X007826Y002059D02*
X008219Y002059D01*
X008219Y002057D02*
X007826Y002057D01*
X007826Y002054D02*
X008219Y002054D01*
X008219Y002052D02*
X007826Y002052D01*
X007826Y002050D02*
X008219Y002050D01*
X008219Y002047D02*
X007826Y002047D01*
X007826Y002045D02*
X008219Y002045D01*
X008219Y002042D02*
X007826Y002042D01*
X007826Y002040D02*
X008219Y002040D01*
X008219Y002037D02*
X007826Y002037D01*
X007826Y002035D02*
X008219Y002035D01*
X008219Y002032D02*
X007826Y002032D01*
X007826Y002030D02*
X008219Y002030D01*
X008219Y002028D02*
X007826Y002028D01*
X007826Y002025D02*
X008219Y002025D01*
X008219Y002023D02*
X007826Y002023D01*
X007826Y002020D02*
X008219Y002020D01*
X008219Y002018D02*
X007826Y002018D01*
X007826Y002015D02*
X008219Y002015D01*
X008219Y002013D02*
X007826Y002013D01*
X007826Y002011D02*
X008219Y002011D01*
X008219Y002008D02*
X007826Y002008D01*
X007826Y002006D02*
X008219Y002006D01*
X008219Y002003D02*
X007826Y002003D01*
X007826Y002001D02*
X008219Y002001D01*
X008219Y001998D02*
X007826Y001998D01*
X007826Y001996D02*
X008219Y001996D01*
X008219Y001993D02*
X007826Y001993D01*
X007826Y001991D02*
X008219Y001991D01*
X008219Y001989D02*
X007826Y001989D01*
X007826Y001986D02*
X008219Y001986D01*
X008219Y001984D02*
X007826Y001984D01*
X007826Y001981D02*
X008219Y001981D01*
X008219Y001979D02*
X007826Y001979D01*
X007826Y001976D02*
X008219Y001976D01*
X008219Y001974D02*
X007826Y001974D01*
X007826Y001972D02*
X008219Y001972D01*
X008219Y001969D02*
X007826Y001969D01*
X007826Y001967D02*
X008219Y001967D01*
X008219Y001964D02*
X007826Y001964D01*
X007826Y001962D02*
X008219Y001962D01*
X008219Y001959D02*
X007826Y001959D01*
X007826Y001957D02*
X008219Y001957D01*
X008219Y001954D02*
X007826Y001954D01*
X007826Y001952D02*
X008219Y001952D01*
X008219Y001950D02*
X007826Y001950D01*
X007826Y001947D02*
X008219Y001947D01*
X008219Y001945D02*
X007826Y001945D01*
X007826Y001942D02*
X008219Y001942D01*
X008219Y001940D02*
X007826Y001940D01*
X007826Y001937D02*
X008219Y001937D01*
X008219Y001935D02*
X007826Y001935D01*
X007826Y001933D02*
X008219Y001933D01*
X008219Y001930D02*
X007826Y001930D01*
X007826Y001928D02*
X008219Y001928D01*
X008219Y001925D02*
X007826Y001925D01*
X007826Y001923D02*
X008219Y001923D01*
X008219Y001920D02*
X007826Y001920D01*
X007826Y001918D02*
X008219Y001918D01*
X008219Y001915D02*
X007826Y001915D01*
X007826Y001913D02*
X008219Y001913D01*
X008219Y001911D02*
X007826Y001911D01*
X007826Y001908D02*
X008219Y001908D01*
X008219Y001906D02*
X007826Y001906D01*
X007826Y001903D02*
X008219Y001903D01*
X008219Y001901D02*
X007826Y001901D01*
X007826Y001898D02*
X008219Y001898D01*
X008219Y001896D02*
X007826Y001896D01*
X007826Y001894D02*
X008219Y001894D01*
X008219Y001891D02*
X007826Y001891D01*
X007826Y001889D02*
X008219Y001889D01*
X008219Y001886D02*
X007826Y001886D01*
X007826Y001884D02*
X008219Y001884D01*
X008219Y001881D02*
X007826Y001881D01*
X007826Y001879D02*
X008219Y001879D01*
X008219Y001876D02*
X007826Y001876D01*
X007826Y001874D02*
X008219Y001874D01*
X008219Y001872D02*
X007826Y001872D01*
X007826Y001869D02*
X008219Y001869D01*
X008219Y001867D02*
X007826Y001867D01*
X007826Y001864D02*
X008219Y001864D01*
X008219Y001862D02*
X007826Y001862D01*
X007826Y001859D02*
X008219Y001859D01*
X008219Y001857D02*
X007826Y001857D01*
X007826Y001855D02*
X008219Y001855D01*
X008219Y001852D02*
X007826Y001852D01*
X007826Y001850D02*
X008219Y001850D01*
X008219Y001847D02*
X007826Y001847D01*
X007826Y001845D02*
X008219Y001845D01*
X008219Y001842D02*
X007826Y001842D01*
X007826Y001840D02*
X008219Y001840D01*
X008219Y001837D02*
X007826Y001837D01*
X007826Y001835D02*
X008219Y001835D01*
X008219Y001833D02*
X007826Y001833D01*
X007826Y001830D02*
X008219Y001830D01*
X008219Y001828D02*
X007826Y001828D01*
X007826Y001825D02*
X008219Y001825D01*
X008219Y001823D02*
X007826Y001823D01*
X007826Y001820D02*
X008219Y001820D01*
X008219Y001818D02*
X007826Y001818D01*
X007827Y001816D02*
X008218Y001816D01*
X008218Y001813D02*
X007827Y001813D01*
X007827Y001811D02*
X008218Y001811D01*
X008217Y001808D02*
X007827Y001808D01*
X007828Y001806D02*
X008217Y001806D01*
X008217Y001803D02*
X007828Y001803D01*
X007828Y001801D02*
X008217Y001801D01*
X008216Y001798D02*
X007829Y001798D01*
X007829Y001796D02*
X008216Y001796D01*
X008216Y001794D02*
X007829Y001794D01*
X007829Y001791D02*
X008216Y001791D01*
X008215Y001789D02*
X007830Y001789D01*
X007830Y001786D02*
X008215Y001786D01*
X008215Y001784D02*
X007830Y001784D01*
X007830Y001781D02*
X008214Y001781D01*
X008214Y001779D02*
X007831Y001779D01*
X007832Y001777D02*
X008213Y001777D01*
X008212Y001774D02*
X007833Y001774D01*
X007834Y001772D02*
X008211Y001772D01*
X008210Y001769D02*
X007835Y001769D01*
X007835Y001767D02*
X008209Y001767D01*
X008209Y001764D02*
X007836Y001764D01*
X007837Y001762D02*
X008208Y001762D01*
X008207Y001759D02*
X007838Y001759D01*
X007839Y001757D02*
X008206Y001757D01*
X008205Y001755D02*
X007840Y001755D01*
X007841Y001752D02*
X008204Y001752D01*
X008203Y001750D02*
X007841Y001750D01*
X007842Y001747D02*
X008203Y001747D01*
X008202Y001745D02*
X007843Y001745D01*
X007844Y001742D02*
X008201Y001742D01*
X008200Y001740D02*
X007845Y001740D01*
X007846Y001738D02*
X008199Y001738D01*
X008197Y001735D02*
X007848Y001735D01*
X007849Y001733D02*
X008196Y001733D01*
X008194Y001730D02*
X007851Y001730D01*
X007852Y001728D02*
X008193Y001728D01*
X008191Y001725D02*
X007854Y001725D01*
X007855Y001723D02*
X008189Y001723D01*
X008188Y001720D02*
X007857Y001720D01*
X007858Y001718D02*
X008186Y001718D01*
X008185Y001716D02*
X007860Y001716D01*
X007862Y001713D02*
X008183Y001713D01*
X008182Y001711D02*
X007863Y001711D01*
X007865Y001708D02*
X008180Y001708D01*
X008179Y001706D02*
X007866Y001706D01*
X007868Y001703D02*
X008177Y001703D01*
X008175Y001701D02*
X007870Y001701D01*
X007872Y001699D02*
X008173Y001699D01*
X008170Y001696D02*
X007874Y001696D01*
X007877Y001694D02*
X008168Y001694D01*
X008166Y001691D02*
X007879Y001691D01*
X007882Y001689D02*
X008163Y001689D01*
X008161Y001686D02*
X007884Y001686D01*
X007887Y001684D02*
X008158Y001684D01*
X008156Y001681D02*
X007889Y001681D01*
X007892Y001679D02*
X008153Y001679D01*
X008151Y001677D02*
X007894Y001677D01*
X007896Y001674D02*
X008148Y001674D01*
M02*
