G75*
G70*
%OFA0B0*%
%FSLAX24Y24*%
%IPPOS*%
%LPD*%
%AMOC8*
5,1,8,0,0,1.08239X$1,22.5*
%
%ADD10C,0.0060*%
%ADD11C,0.0050*%
%ADD12C,0.0000*%
%ADD13C,0.0020*%
%ADD14C,0.0040*%
D10*
X008557Y002890D02*
X008607Y002840D01*
X008757Y002840D01*
X008757Y003140D01*
X008607Y003140D01*
X008557Y003090D01*
X008557Y003040D01*
X008607Y002990D01*
X008757Y002990D01*
X008888Y002940D02*
X008888Y002890D01*
X008938Y002840D01*
X009038Y002840D01*
X009089Y002890D01*
X009038Y002990D02*
X008938Y002990D01*
X008888Y002940D01*
X009038Y002990D02*
X009089Y003040D01*
X009089Y003090D01*
X009038Y003140D01*
X008938Y003140D01*
X008888Y003090D01*
X008607Y002990D02*
X008557Y002940D01*
X008557Y002890D01*
X008723Y002600D02*
X008923Y002600D01*
X008923Y002450D01*
X008823Y002500D01*
X008773Y002500D01*
X008723Y002450D01*
X008723Y002350D01*
X008773Y002300D01*
X008873Y002300D01*
X008923Y002350D01*
X009054Y002350D02*
X009104Y002300D01*
X009204Y002300D01*
X009254Y002350D01*
X009054Y002550D01*
X009054Y002350D01*
X009054Y002550D02*
X009104Y002600D01*
X009204Y002600D01*
X009254Y002550D01*
X009254Y002350D01*
X009403Y002200D02*
X009403Y001900D01*
X009503Y001900D02*
X009303Y001900D01*
X009503Y002100D02*
X009403Y002200D01*
X009586Y002300D02*
X009386Y002600D01*
X009370Y002840D02*
X009270Y002840D01*
X009220Y002890D01*
X009220Y003140D01*
X009420Y003140D02*
X009420Y002890D01*
X009370Y002840D01*
X009767Y002600D02*
X009917Y002450D01*
X009717Y002450D01*
X009767Y002300D02*
X009767Y002600D01*
X009883Y002840D02*
X010083Y002840D01*
X009983Y002840D02*
X009983Y003140D01*
X010083Y003040D01*
X010214Y003090D02*
X010214Y002990D01*
X010264Y002940D01*
X010414Y002940D01*
X010414Y002840D02*
X010414Y003140D01*
X010264Y003140D01*
X010214Y003090D01*
X010546Y003090D02*
X010596Y003140D01*
X010696Y003140D01*
X010746Y003090D01*
X010746Y003040D01*
X010696Y002990D01*
X010596Y002990D01*
X010546Y002940D01*
X010546Y002890D01*
X010596Y002840D01*
X010696Y002840D01*
X010746Y002890D01*
X010877Y002990D02*
X010927Y002940D01*
X011077Y002940D01*
X011077Y002840D02*
X011077Y003140D01*
X010927Y003140D01*
X010877Y003090D01*
X010877Y002990D01*
X010862Y002600D02*
X010762Y002600D01*
X010712Y002550D01*
X010712Y002500D01*
X010912Y002300D01*
X010712Y002300D01*
X010580Y002350D02*
X010380Y002550D01*
X010380Y002350D01*
X010430Y002300D01*
X010530Y002300D01*
X010580Y002350D01*
X010580Y002550D01*
X010530Y002600D01*
X010430Y002600D01*
X010380Y002550D01*
X010249Y002550D02*
X010199Y002600D01*
X010099Y002600D01*
X010049Y002550D01*
X010049Y002500D01*
X010249Y002300D01*
X010049Y002300D01*
X010131Y002200D02*
X010131Y002000D01*
X010232Y001900D01*
X010332Y002000D01*
X010332Y002200D01*
X010000Y002100D02*
X009900Y002200D01*
X009900Y001900D01*
X010000Y001900D02*
X009800Y001900D01*
X009669Y001900D02*
X009669Y001950D01*
X009619Y001950D01*
X009619Y001900D01*
X009669Y001900D01*
X010862Y002600D02*
X010912Y002550D01*
D11*
X007731Y001800D02*
X007731Y003700D01*
X007733Y003723D01*
X007738Y003746D01*
X007747Y003768D01*
X007760Y003788D01*
X007775Y003806D01*
X007793Y003821D01*
X007813Y003834D01*
X007835Y003843D01*
X007858Y003848D01*
X007881Y003850D01*
X008981Y003850D01*
X009381Y004250D01*
X009381Y005900D01*
X009531Y006050D01*
X009531Y006700D01*
X009533Y006723D01*
X009539Y006747D01*
X009548Y006768D01*
X009561Y006789D01*
X009577Y006807D01*
X009595Y006822D01*
X009615Y006834D01*
X009638Y006843D01*
X009661Y006848D01*
X009685Y006850D01*
X009935Y006850D01*
X009958Y006848D01*
X009981Y006843D01*
X010003Y006834D01*
X010023Y006821D01*
X010041Y006806D01*
X010056Y006788D01*
X010069Y006768D01*
X010078Y006746D01*
X010083Y006723D01*
X010085Y006700D01*
X010085Y006200D01*
X010087Y006176D01*
X010092Y006154D01*
X010100Y006132D01*
X010112Y006112D01*
X010127Y006095D01*
X010145Y006079D01*
X010164Y006067D01*
X010186Y006058D01*
X010208Y006052D01*
X010231Y006050D01*
X010581Y006050D01*
X010605Y006052D01*
X010628Y006057D01*
X010651Y006066D01*
X010671Y006078D01*
X010689Y006093D01*
X010705Y006111D01*
X010718Y006132D01*
X010727Y006153D01*
X010733Y006177D01*
X010735Y006200D01*
X010735Y006700D01*
X010737Y006723D01*
X010742Y006746D01*
X010751Y006768D01*
X010764Y006788D01*
X010779Y006806D01*
X010797Y006821D01*
X010817Y006834D01*
X010839Y006843D01*
X010862Y006848D01*
X010885Y006850D01*
X011135Y006850D01*
X011158Y006848D01*
X011180Y006842D01*
X011202Y006833D01*
X011221Y006821D01*
X011239Y006805D01*
X011254Y006788D01*
X011266Y006768D01*
X011274Y006746D01*
X011279Y006724D01*
X011281Y006700D01*
X011281Y006050D01*
X011431Y005900D01*
X011431Y005600D01*
X011931Y005100D01*
X011931Y001800D01*
X011929Y001777D01*
X011924Y001754D01*
X011915Y001732D01*
X011902Y001712D01*
X011887Y001694D01*
X011869Y001679D01*
X011849Y001666D01*
X011827Y001657D01*
X011804Y001652D01*
X011781Y001650D01*
X007881Y001650D01*
X007858Y001652D01*
X007835Y001657D01*
X007813Y001666D01*
X007793Y001679D01*
X007775Y001694D01*
X007760Y001712D01*
X007747Y001732D01*
X007738Y001754D01*
X007733Y001777D01*
X007731Y001800D01*
X008964Y003395D02*
X008931Y003457D01*
X008936Y003530D01*
X008979Y003580D01*
X009001Y003595D01*
X009064Y003595D01*
X009116Y003560D01*
X009139Y003515D01*
X009139Y003455D01*
X009119Y003417D01*
X009096Y003390D01*
X009064Y003375D01*
X009029Y003367D02*
X008964Y003395D01*
X010768Y004200D02*
X010954Y004200D01*
X010861Y004293D02*
X010861Y004107D01*
X011071Y004107D02*
X011118Y004060D01*
X011258Y004060D01*
X011258Y004340D01*
X011118Y004340D01*
X011071Y004293D01*
X011071Y004107D01*
X011118Y004910D02*
X011071Y004957D01*
X011071Y005143D01*
X011118Y005190D01*
X011258Y005190D01*
X011258Y004910D01*
X011118Y004910D01*
X010954Y005050D02*
X010768Y005050D01*
D12*
X010110Y004740D02*
X010112Y004774D01*
X010118Y004808D01*
X010127Y004841D01*
X010141Y004872D01*
X010158Y004902D01*
X010178Y004930D01*
X010201Y004955D01*
X010227Y004978D01*
X010255Y004997D01*
X010285Y005013D01*
X010317Y005025D01*
X010350Y005034D01*
X010384Y005039D01*
X010419Y005040D01*
X010453Y005037D01*
X010486Y005030D01*
X010519Y005020D01*
X010550Y005005D01*
X010579Y004988D01*
X010606Y004967D01*
X010631Y004943D01*
X010653Y004916D01*
X010671Y004888D01*
X010686Y004857D01*
X010698Y004825D01*
X010706Y004791D01*
X010710Y004757D01*
X010710Y004723D01*
X010706Y004689D01*
X010698Y004655D01*
X010686Y004623D01*
X010671Y004592D01*
X010653Y004564D01*
X010631Y004537D01*
X010606Y004513D01*
X010579Y004492D01*
X010550Y004475D01*
X010519Y004460D01*
X010486Y004450D01*
X010453Y004443D01*
X010419Y004440D01*
X010384Y004441D01*
X010350Y004446D01*
X010317Y004455D01*
X010285Y004467D01*
X010255Y004483D01*
X010227Y004502D01*
X010201Y004525D01*
X010178Y004550D01*
X010158Y004578D01*
X010141Y004608D01*
X010127Y004639D01*
X010118Y004672D01*
X010112Y004706D01*
X010110Y004740D01*
X010160Y005643D02*
X010162Y005674D01*
X010168Y005705D01*
X010178Y005735D01*
X010191Y005763D01*
X010208Y005790D01*
X010228Y005814D01*
X010251Y005836D01*
X010276Y005854D01*
X010304Y005869D01*
X010333Y005881D01*
X010363Y005889D01*
X010394Y005893D01*
X010426Y005893D01*
X010457Y005889D01*
X010487Y005881D01*
X010516Y005869D01*
X010544Y005854D01*
X010569Y005836D01*
X010592Y005814D01*
X010612Y005790D01*
X010629Y005763D01*
X010642Y005735D01*
X010652Y005705D01*
X010658Y005674D01*
X010660Y005643D01*
X010658Y005612D01*
X010652Y005581D01*
X010642Y005551D01*
X010629Y005523D01*
X010612Y005496D01*
X010592Y005472D01*
X010569Y005450D01*
X010544Y005432D01*
X010516Y005417D01*
X010487Y005405D01*
X010457Y005397D01*
X010426Y005393D01*
X010394Y005393D01*
X010363Y005397D01*
X010333Y005405D01*
X010304Y005417D01*
X010276Y005432D01*
X010251Y005450D01*
X010228Y005472D01*
X010208Y005496D01*
X010191Y005523D01*
X010178Y005551D01*
X010168Y005581D01*
X010162Y005612D01*
X010160Y005643D01*
D13*
X010679Y003730D02*
X010679Y003357D01*
X010724Y003357D01*
X010724Y003360D02*
X010724Y003730D01*
X010679Y003730D01*
X010691Y003717D02*
X010691Y003367D01*
X010709Y003367D02*
X010711Y003717D01*
X010691Y003717D01*
X010604Y003682D02*
X010556Y003682D01*
X010556Y003622D01*
X010559Y003615D01*
X010479Y003615D01*
X010479Y003572D01*
X010549Y003572D01*
X010556Y003570D01*
X010556Y003432D01*
X010549Y003417D01*
X010541Y003410D01*
X010531Y003402D01*
X010516Y003395D01*
X010481Y003395D01*
X010481Y003355D01*
X010506Y003355D01*
X010511Y003355D02*
X010494Y003367D01*
X010531Y003375D01*
X010564Y003385D01*
X010579Y003412D01*
X010591Y003442D01*
X010591Y003667D01*
X010571Y003670D01*
X010574Y003440D01*
X010551Y003395D01*
X010491Y003377D01*
X010511Y003355D02*
X010531Y003360D01*
X010554Y003365D01*
X010576Y003377D01*
X010591Y003400D01*
X010604Y003435D01*
X010604Y003682D01*
X010561Y003600D02*
X010491Y003600D01*
X010491Y003582D01*
X010564Y003585D01*
X010419Y003540D02*
X010426Y003512D01*
X010431Y003482D01*
X010429Y003457D01*
X010421Y003432D01*
X010404Y003402D01*
X010386Y003382D01*
X010366Y003367D01*
X010341Y003357D01*
X010321Y003352D01*
X010271Y003352D01*
X010249Y003360D01*
X010229Y003370D01*
X010211Y003382D01*
X010194Y003402D01*
X010179Y003435D01*
X010169Y003467D01*
X010214Y003475D01*
X010221Y003445D01*
X010231Y003427D01*
X010246Y003412D01*
X010264Y003400D01*
X010279Y003392D01*
X010319Y003392D01*
X010326Y003397D01*
X010341Y003405D01*
X010361Y003417D01*
X010374Y003442D01*
X010384Y003467D01*
X010384Y003490D01*
X010381Y003520D01*
X010374Y003530D01*
X010366Y003542D01*
X010346Y003562D01*
X010324Y003575D01*
X010271Y003575D01*
X010259Y003567D01*
X010251Y003555D01*
X010249Y003542D01*
X010364Y003475D01*
X010344Y003445D01*
X010346Y003445D02*
X010176Y003540D01*
X010191Y003562D01*
X010209Y003582D01*
X010226Y003597D01*
X010249Y003610D01*
X010276Y003617D01*
X010324Y003617D01*
X010341Y003612D01*
X010369Y003597D01*
X010394Y003577D01*
X010419Y003540D01*
X010406Y003525D02*
X010414Y003457D01*
X010384Y003395D01*
X010324Y003365D01*
X010269Y003365D01*
X010211Y003402D01*
X010186Y003460D01*
X010204Y003457D02*
X010219Y003415D01*
X010266Y003385D01*
X010281Y003377D01*
X010324Y003377D01*
X010371Y003402D01*
X010399Y003465D01*
X010394Y003525D01*
X010374Y003560D01*
X010331Y003585D01*
X010279Y003587D01*
X010251Y003575D01*
X010239Y003557D01*
X010234Y003540D01*
X010346Y003475D01*
X010344Y003460D01*
X010196Y003545D01*
X010231Y003585D01*
X010219Y003545D01*
X010231Y003567D02*
X010271Y003605D01*
X010289Y003605D01*
X010326Y003605D02*
X010389Y003567D01*
X010406Y003525D01*
X010326Y003602D02*
X010239Y003590D01*
X010114Y003570D02*
X010116Y003552D01*
X010116Y003537D01*
X010109Y003520D01*
X010096Y003502D01*
X010059Y003477D01*
X009981Y003445D01*
X009971Y003432D01*
X009966Y003420D01*
X009976Y003407D01*
X009989Y003397D01*
X010116Y003397D01*
X010116Y003357D01*
X010001Y003357D01*
X009961Y003365D01*
X009941Y003377D01*
X009926Y003400D01*
X009926Y003442D01*
X009934Y003462D01*
X009951Y003477D01*
X010059Y003525D01*
X010069Y003535D01*
X010071Y003540D01*
X010071Y003557D01*
X010066Y003567D01*
X010064Y003570D01*
X010056Y003572D01*
X009939Y003572D01*
X009939Y003612D01*
X010051Y003612D01*
X010074Y003607D01*
X010089Y003600D01*
X010104Y003585D01*
X010114Y003570D01*
X010094Y003580D02*
X010099Y003532D01*
X010074Y003502D01*
X009969Y003455D01*
X009959Y003425D01*
X009954Y003405D01*
X009979Y003387D01*
X009989Y003382D02*
X010104Y003382D01*
X010109Y003380D01*
X010081Y003377D01*
X010106Y003370D02*
X009979Y003372D01*
X009989Y003382D01*
X009971Y003372D02*
X009941Y003402D01*
X009949Y003452D01*
X009971Y003475D01*
X010076Y003520D01*
X010089Y003540D01*
X010079Y003570D01*
X010064Y003585D01*
X009954Y003587D01*
X009951Y003597D01*
X010064Y003595D01*
X010094Y003580D01*
X010114Y003360D02*
X010116Y003357D01*
X009869Y003460D02*
X009869Y003510D01*
X009861Y003535D01*
X009851Y003557D01*
X009834Y003580D01*
X009811Y003600D01*
X009789Y003610D01*
X009764Y003617D01*
X009724Y003617D01*
X009709Y003615D01*
X009689Y003607D01*
X009659Y003590D01*
X009639Y003570D01*
X009624Y003542D01*
X009616Y003522D01*
X009611Y003497D01*
X009611Y003357D01*
X009641Y003357D01*
X009646Y003357D02*
X009654Y003357D01*
X009664Y003370D01*
X009671Y003370D01*
X009676Y003367D01*
X009724Y003352D01*
X009766Y003352D01*
X009796Y003365D01*
X009819Y003375D01*
X009836Y003392D01*
X009856Y003422D01*
X009869Y003460D01*
X009851Y003450D02*
X009854Y003502D01*
X009846Y003535D01*
X009811Y003582D01*
X009771Y003600D01*
X009726Y003600D01*
X009681Y003585D01*
X009651Y003562D01*
X009629Y003502D01*
X009624Y003365D01*
X009644Y003370D02*
X009644Y003380D01*
X009674Y003397D01*
X009639Y003387D01*
X009649Y003410D01*
X009639Y003410D01*
X009646Y003510D01*
X009674Y003567D01*
X009731Y003587D01*
X009789Y003580D01*
X009829Y003542D01*
X009839Y003467D01*
X009824Y003425D01*
X009794Y003390D01*
X009721Y003375D01*
X009721Y003370D02*
X009679Y003387D01*
X009659Y003380D01*
X009644Y003370D01*
X009669Y003405D02*
X009676Y003412D01*
X009679Y003410D01*
X009696Y003397D01*
X009716Y003390D01*
X009759Y003390D01*
X009776Y003395D01*
X009796Y003410D01*
X009814Y003435D01*
X009824Y003450D01*
X009824Y003520D01*
X009814Y003537D01*
X009801Y003555D01*
X009784Y003567D01*
X009761Y003575D01*
X009719Y003575D01*
X009711Y003572D01*
X009691Y003562D01*
X009674Y003545D01*
X009664Y003525D01*
X009659Y003512D01*
X009656Y003417D01*
X009659Y003412D01*
X009661Y003410D01*
X009721Y003370D02*
X009764Y003365D01*
X009811Y003387D01*
X009851Y003450D01*
X009524Y003392D02*
X009524Y003372D01*
X009521Y003365D01*
X009511Y003355D01*
X009501Y003352D01*
X009484Y003370D01*
X009481Y003387D01*
X009494Y003397D01*
X009506Y003387D01*
X009504Y003372D01*
X009496Y003380D01*
X009496Y003352D02*
X009486Y003352D01*
X009479Y003355D01*
X009469Y003362D01*
X009466Y003370D01*
X009466Y003387D01*
X009471Y003397D01*
X009484Y003410D01*
X009506Y003410D01*
X009516Y003402D01*
X009524Y003392D01*
X009384Y003442D02*
X009389Y003467D01*
X009389Y003497D01*
X009384Y003515D01*
X009376Y003535D01*
X009366Y003555D01*
X009354Y003570D01*
X009336Y003587D01*
X009311Y003602D01*
X009289Y003610D01*
X009266Y003612D01*
X009216Y003612D01*
X009216Y003570D01*
X009259Y003570D01*
X009284Y003565D01*
X009299Y003557D01*
X009321Y003542D01*
X009334Y003520D01*
X009344Y003505D01*
X009344Y003465D01*
X009341Y003460D01*
X009336Y003447D01*
X009324Y003430D01*
X009306Y003412D01*
X009284Y003402D01*
X009266Y003397D01*
X009216Y003397D01*
X009216Y003355D01*
X009259Y003355D01*
X009286Y003360D01*
X009306Y003365D01*
X009324Y003372D01*
X009344Y003387D01*
X009359Y003402D01*
X009371Y003417D01*
X009384Y003442D01*
X009371Y003452D02*
X009371Y003520D01*
X009334Y003570D01*
X009286Y003597D01*
X009231Y003600D01*
X009231Y003585D01*
X009286Y003582D01*
X009331Y003550D01*
X009356Y003515D01*
X009354Y003450D01*
X009324Y003407D01*
X009286Y003387D01*
X009231Y003382D01*
X009226Y003367D02*
X009294Y003372D01*
X009344Y003405D01*
X009371Y003452D01*
X009261Y003355D02*
X009259Y003355D01*
X009151Y003422D02*
X009141Y003405D01*
X009124Y003387D01*
X009104Y003370D01*
X009084Y003360D01*
X009059Y003352D01*
X009049Y003352D01*
X009046Y003352D02*
X009014Y003352D01*
X008991Y003357D01*
X008966Y003367D01*
X008944Y003387D01*
X008926Y003412D01*
X008914Y003430D01*
X008909Y003455D01*
X008909Y003512D01*
X008916Y003540D01*
X008926Y003560D01*
X008964Y003597D01*
X008991Y003612D01*
X009019Y003617D01*
X009061Y003617D01*
X009089Y003607D01*
X009116Y003590D01*
X009139Y003567D01*
X009154Y003545D01*
X009164Y003507D01*
X009164Y003460D01*
X009159Y003442D01*
X009151Y003422D01*
X009109Y003437D02*
X009096Y003417D01*
X009079Y003402D01*
X009061Y003392D01*
X009021Y003392D01*
X009029Y003390D02*
X009009Y003395D01*
X008989Y003405D01*
X008976Y003417D01*
X008964Y003435D01*
X008959Y003447D01*
X008956Y003457D01*
X008956Y003510D01*
X008964Y003530D01*
X008976Y003550D01*
X008991Y003565D01*
X009006Y003572D01*
X009014Y003575D01*
X009054Y003575D01*
X009071Y003570D01*
X009091Y003557D01*
X009101Y003545D01*
X009114Y003525D01*
X009119Y003510D01*
X009119Y003460D01*
X009109Y003437D01*
X008844Y003355D02*
X008801Y003355D01*
X008801Y003530D01*
X008794Y003545D01*
X008786Y003557D01*
X008776Y003567D01*
X008759Y003575D01*
X008729Y003575D01*
X008709Y003565D01*
X008696Y003555D01*
X008684Y003537D01*
X008684Y003357D01*
X008639Y003357D01*
X008639Y003537D01*
X008636Y003542D01*
X008626Y003557D01*
X008609Y003572D01*
X008569Y003572D01*
X008559Y003567D01*
X008544Y003562D01*
X008534Y003547D01*
X008526Y003530D01*
X008526Y003357D01*
X008481Y003357D01*
X008481Y003512D01*
X008484Y003535D01*
X008489Y003550D01*
X008499Y003572D01*
X008511Y003587D01*
X008529Y003602D01*
X008549Y003612D01*
X008566Y003617D01*
X008601Y003617D01*
X008614Y003615D01*
X008631Y003605D01*
X008646Y003592D01*
X008659Y003585D01*
X008669Y003585D01*
X008679Y003595D01*
X008704Y003610D01*
X008724Y003617D01*
X008764Y003617D01*
X008796Y003605D01*
X008819Y003587D01*
X008834Y003562D01*
X008844Y003527D01*
X008844Y003355D01*
X010806Y003357D02*
X010806Y003612D01*
X010851Y003612D01*
X010851Y003357D01*
X010806Y003357D01*
X010819Y003370D02*
X010824Y003600D01*
X010839Y003600D02*
X010834Y003370D01*
X010819Y003370D01*
X010926Y003345D02*
X010934Y003317D01*
X010944Y003292D01*
X010964Y003267D01*
X010989Y003250D01*
X011011Y003237D01*
X011046Y003232D01*
X011076Y003232D01*
X011139Y003250D01*
X011129Y003290D01*
X011079Y003277D01*
X011049Y003277D01*
X011029Y003282D01*
X011009Y003292D01*
X010989Y003310D01*
X010974Y003327D01*
X010974Y003372D01*
X010991Y003367D01*
X011039Y003352D01*
X011081Y003352D01*
X011131Y003372D01*
X011154Y003395D01*
X011169Y003417D01*
X011179Y003442D01*
X011184Y003462D01*
X011184Y003507D01*
X011176Y003540D01*
X011166Y003557D01*
X011151Y003577D01*
X011134Y003595D01*
X011111Y003607D01*
X011079Y003617D01*
X011036Y003617D01*
X011021Y003615D01*
X010994Y003602D01*
X010974Y003590D01*
X010954Y003567D01*
X010939Y003545D01*
X010931Y003522D01*
X010926Y003502D01*
X010926Y003345D01*
X010944Y003332D02*
X010944Y003512D01*
X010961Y003515D01*
X010959Y003320D01*
X011006Y003270D01*
X011064Y003262D01*
X011119Y003275D01*
X011131Y003265D02*
X011064Y003247D01*
X011004Y003255D01*
X010961Y003295D01*
X010944Y003332D01*
X010974Y003382D02*
X011054Y003360D01*
X011121Y003380D01*
X011154Y003425D01*
X011166Y003457D01*
X011164Y003532D01*
X011121Y003582D01*
X011069Y003602D01*
X011024Y003597D01*
X010981Y003577D01*
X010946Y003522D01*
X010961Y003522D02*
X010986Y003570D01*
X011026Y003582D01*
X011079Y003587D01*
X011114Y003572D01*
X011144Y003537D01*
X011151Y003470D01*
X011136Y003417D01*
X011096Y003382D01*
X011039Y003375D01*
X010974Y003405D01*
X010974Y003382D01*
X010996Y003407D02*
X010969Y003425D01*
X010974Y003422D02*
X010974Y003515D01*
X010979Y003530D01*
X010991Y003550D01*
X011011Y003565D01*
X011031Y003575D01*
X011069Y003575D01*
X011086Y003572D01*
X011104Y003560D01*
X011116Y003547D01*
X011129Y003532D01*
X011136Y003517D01*
X011139Y003520D02*
X011136Y003455D01*
X011119Y003422D01*
X011101Y003402D01*
X011079Y003392D01*
X011036Y003392D01*
X011029Y003395D01*
X010996Y003407D01*
X010839Y003660D02*
X010829Y003660D01*
X010819Y003690D01*
X010829Y003700D01*
X010839Y003692D01*
X010836Y003675D01*
X010849Y003670D02*
X010839Y003660D01*
X010829Y003662D02*
X010821Y003660D01*
X010811Y003665D01*
X010806Y003672D01*
X010801Y003682D01*
X010801Y003690D01*
X010804Y003700D01*
X010814Y003710D01*
X010821Y003715D01*
X010836Y003715D01*
X010846Y003707D01*
X010854Y003695D01*
X010854Y003680D01*
X010849Y003670D01*
D14*
X008824Y003527D02*
X008821Y003377D01*
X008824Y003527D02*
X008789Y003582D01*
X008751Y003597D01*
X008699Y003582D01*
X008666Y003557D01*
X008661Y003370D01*
X008501Y003377D02*
X008504Y003532D01*
X008531Y003577D01*
X008581Y003592D01*
X008619Y003590D01*
X008651Y003562D01*
M02*
